solid OpenSCAD_Model
  facet normal 0 -1 0
    outer loop
      vertex 0.301375 -22.3904 -2.7
      vertex 0.781889 -22.3904 -5.72205e-07
      vertex 0.301375 -22.3904 -5.72205e-07
    endloop
  endfacet
  facet normal 0 -1 -0
    outer loop
      vertex 0.781889 -22.3904 -5.72205e-07
      vertex 0.301375 -22.3904 -2.7
      vertex 0.781889 -22.3904 -2.7
    endloop
  endfacet
  facet normal 0.694658 -0.71934 0
    outer loop
      vertex 14.9912 -16.6494 -2.7
      vertex 16.1161 -15.5631 -5.72205e-07
      vertex 14.9912 -16.6494 -5.72205e-07
    endloop
  endfacet
  facet normal 0.694658 -0.71934 0
    outer loop
      vertex 16.1161 -15.5631 -5.72205e-07
      vertex 14.9912 -16.6494 -2.7
      vertex 16.1161 -15.5631 -2.7
    endloop
  endfacet
  facet normal 0.898794 -0.43837 0
    outer loop
      vertex 19.7816 -10.5181 -5.72205e-07
      vertex 20.4671 -9.11254 -2.7
      vertex 20.4671 -9.11254 -5.72205e-07
    endloop
  endfacet
  facet normal 0.898794 -0.43837 0
    outer loop
      vertex 20.4671 -9.11254 -2.7
      vertex 19.7816 -10.5181 -5.72205e-07
      vertex 19.7816 -10.5181 -2.7
    endloop
  endfacet
  facet normal 0.406737 -0.913545 0
    outer loop
      vertex 8.3927 -20.7727 -2.7
      vertex 9.82128 -20.1366 -5.72205e-07
      vertex 8.3927 -20.7727 -5.72205e-07
    endloop
  endfacet
  facet normal 0.406737 -0.913545 0
    outer loop
      vertex 9.82128 -20.1366 -5.72205e-07
      vertex 8.3927 -20.7727 -2.7
      vertex 9.82128 -20.1366 -2.7
    endloop
  endfacet
  facet normal 0.587786 -0.809017 0
    outer loop
      vertex 12.5282 -18.5738 -2.7
      vertex 13.7933 -17.6546 -5.72205e-07
      vertex 12.5282 -18.5738 -5.72205e-07
    endloop
  endfacet
  facet normal 0.587786 -0.809017 0
    outer loop
      vertex 13.7933 -17.6546 -5.72205e-07
      vertex 12.5282 -18.5738 -2.7
      vertex 13.7933 -17.6546 -2.7
    endloop
  endfacet
  facet normal 0.829037 -0.559193 0
    outer loop
      vertex 18.1252 -13.1688 -5.72205e-07
      vertex 18.9997 -11.8723 -2.7
      vertex 18.9997 -11.8723 -5.72205e-07
    endloop
  endfacet
  facet normal 0.829037 -0.559193 0
    outer loop
      vertex 18.9997 -11.8723 -2.7
      vertex 18.1252 -13.1688 -5.72205e-07
      vertex 18.1252 -13.1688 -2.7
    endloop
  endfacet
  facet normal 0.866025 -0.500001 0
    outer loop
      vertex 18.9997 -11.8723 -5.72205e-07
      vertex 19.7816 -10.5181 -2.7
      vertex 19.7816 -10.5181 -5.72205e-07
    endloop
  endfacet
  facet normal 0.866025 -0.500001 0
    outer loop
      vertex 19.7816 -10.5181 -2.7
      vertex 18.9997 -11.8723 -5.72205e-07
      vertex 18.9997 -11.8723 -2.7
    endloop
  endfacet
  facet normal 0.207912 -0.978147 0
    outer loop
      vertex 3.89042 -22.0637 -2.7
      vertex 5.42002 -21.7385 -5.72205e-07
      vertex 3.89042 -22.0637 -5.72205e-07
    endloop
  endfacet
  facet normal 0.207912 -0.978147 0
    outer loop
      vertex 5.42002 -21.7385 -5.72205e-07
      vertex 3.89042 -22.0637 -2.7
      vertex 5.42002 -21.7385 -2.7
    endloop
  endfacet
  facet normal 0.139173 -0.990268 0
    outer loop
      vertex 2.34186 -22.2813 -2.7
      vertex 3.89042 -22.0637 -5.72205e-07
      vertex 2.34186 -22.2813 -5.72205e-07
    endloop
  endfacet
  facet normal 0.139173 -0.990268 0
    outer loop
      vertex 3.89042 -22.0637 -5.72205e-07
      vertex 2.34186 -22.2813 -2.7
      vertex 3.89042 -22.0637 -2.7
    endloop
  endfacet
  facet normal 0.642788 -0.766044 0
    outer loop
      vertex 13.7933 -17.6546 -2.7
      vertex 14.9912 -16.6494 -5.72205e-07
      vertex 13.7933 -17.6546 -5.72205e-07
    endloop
  endfacet
  facet normal 0.642788 -0.766044 0
    outer loop
      vertex 14.9912 -16.6494 -5.72205e-07
      vertex 13.7933 -17.6546 -2.7
      vertex 14.9912 -16.6494 -2.7
    endloop
  endfacet
  facet normal 0 0 -1
    outer loop
      vertex 24.7953 -1.0267 -2.7
      vertex 21.4516 -1.50004 -2.7
      vertex 21.4599 -1.26305 -2.7
    endloop
  endfacet
  facet normal 0 0 -1
    outer loop
      vertex 24.7953 -1.0267 -2.7
      vertex 21.2948 -2.99278 -2.7
      vertex 21.4516 -1.50004 -2.7
    endloop
  endfacet
  facet normal 0 0 -1
    outer loop
      vertex 21.9313 -4.68534 -2.7
      vertex 21.0341 -4.47094 -2.7
      vertex 21.2948 -2.99278 -2.7
    endloop
  endfacet
  facet normal 0 0 -1
    outer loop
      vertex 20.8716 -8.1113 -2.7
      vertex 21.9313 -4.68534 -2.7
      vertex 24.3294 -4.8929 -2.7
    endloop
  endfacet
  facet normal 0 0 -1
    outer loop
      vertex 20.671 -5.92731 -2.7
      vertex 21.9313 -4.68534 -2.7
      vertex 20.8716 -8.1113 -2.7
    endloop
  endfacet
  facet normal -0 0 -1
    outer loop
      vertex 21.9313 -4.68534 -2.7
      vertex 20.671 -5.92731 -2.7
      vertex 21.0341 -4.47094 -2.7
    endloop
  endfacet
  facet normal 0 0 -1
    outer loop
      vertex 19.6449 -8.74648 -2.7
      vertex 20.8716 -8.1113 -2.7
      vertex 20.4671 -9.11254 -2.7
    endloop
  endfacet
  facet normal 0 0 -1
    outer loop
      vertex 20.8716 -8.1113 -2.7
      vertex 20.2072 -7.35481 -2.7
      vertex 20.671 -5.92731 -2.7
    endloop
  endfacet
  facet normal 0 0 -1
    outer loop
      vertex 19.6449 -8.74648 -2.7
      vertex 20.4671 -9.11254 -2.7
      vertex 19.7816 -10.5181 -2.7
    endloop
  endfacet
  facet normal -0 0 -1
    outer loop
      vertex 20.8716 -8.1113 -2.7
      vertex 19.6449 -8.74648 -2.7
      vertex 20.2072 -7.35481 -2.7
    endloop
  endfacet
  facet normal 0 0 -1
    outer loop
      vertex 18.9869 -10.0955 -2.7
      vertex 19.7816 -10.5181 -2.7
      vertex 18.9997 -11.8723 -2.7
    endloop
  endfacet
  facet normal 0 0 -1
    outer loop
      vertex 19.7816 -10.5181 -2.7
      vertex 18.9869 -10.0955 -2.7
      vertex 19.6449 -8.74648 -2.7
    endloop
  endfacet
  facet normal 0 0 -1
    outer loop
      vertex 18.9997 -11.8723 -2.7
      vertex 18.2365 -11.3954 -2.7
      vertex 18.9869 -10.0955 -2.7
    endloop
  endfacet
  facet normal 0 0 -1
    outer loop
      vertex 18.1252 -13.1688 -2.7
      vertex 18.2365 -11.3954 -2.7
      vertex 18.9997 -11.8723 -2.7
    endloop
  endfacet
  facet normal 0 0 -1
    outer loop
      vertex 18.1252 -13.1688 -2.7
      vertex 17.3971 -12.6398 -2.7
      vertex 18.2365 -11.3954 -2.7
    endloop
  endfacet
  facet normal 0 0 -1
    outer loop
      vertex 17.1625 -14.401 -2.7
      vertex 17.3971 -12.6398 -2.7
      vertex 18.1252 -13.1688 -2.7
    endloop
  endfacet
  facet normal 0 0 -1
    outer loop
      vertex 17.1625 -14.401 -2.7
      vertex 16.473 -13.8225 -2.7
      vertex 17.3971 -12.6398 -2.7
    endloop
  endfacet
  facet normal 0 0 -1
    outer loop
      vertex 16.1161 -15.5631 -2.7
      vertex 16.473 -13.8225 -2.7
      vertex 17.1625 -14.401 -2.7
    endloop
  endfacet
  facet normal 0 0 -1
    outer loop
      vertex 16.1161 -15.5631 -2.7
      vertex 15.4687 -14.938 -2.7
      vertex 16.473 -13.8225 -2.7
    endloop
  endfacet
  facet normal 0 0 -1
    outer loop
      vertex 14.9912 -16.6494 -2.7
      vertex 15.4687 -14.938 -2.7
      vertex 16.1161 -15.5631 -2.7
    endloop
  endfacet
  facet normal 0 0 -1
    outer loop
      vertex 14.9912 -16.6494 -2.7
      vertex 14.389 -15.9806 -2.7
      vertex 15.4687 -14.938 -2.7
    endloop
  endfacet
  facet normal 0 0 -1
    outer loop
      vertex 13.7933 -17.6546 -2.7
      vertex 14.389 -15.9806 -2.7
      vertex 14.9912 -16.6494 -2.7
    endloop
  endfacet
  facet normal 0 0 -1
    outer loop
      vertex 13.7933 -17.6546 -2.7
      vertex 13.2392 -16.9454 -2.7
      vertex 14.389 -15.9806 -2.7
    endloop
  endfacet
  facet normal 0 0 -1
    outer loop
      vertex 12.5282 -18.5738 -2.7
      vertex 13.2392 -16.9454 -2.7
      vertex 13.7933 -17.6546 -2.7
    endloop
  endfacet
  facet normal 0 0 -1
    outer loop
      vertex 12.5282 -18.5738 -2.7
      vertex 12.0249 -17.8276 -2.7
      vertex 13.2392 -16.9454 -2.7
    endloop
  endfacet
  facet normal 0 0 -1
    outer loop
      vertex 11.202 -19.4025 -2.7
      vertex 12.0249 -17.8276 -2.7
      vertex 12.5282 -18.5738 -2.7
    endloop
  endfacet
  facet normal 0 0 -1
    outer loop
      vertex 11.202 -19.4025 -2.7
      vertex 10.752 -18.623 -2.7
      vertex 12.0249 -17.8276 -2.7
    endloop
  endfacet
  facet normal 0 0 -1
    outer loop
      vertex 9.82128 -20.1366 -2.7
      vertex 10.752 -18.623 -2.7
      vertex 11.202 -19.4025 -2.7
    endloop
  endfacet
  facet normal 0 0 -1
    outer loop
      vertex 9.82128 -20.1366 -2.7
      vertex 9.42675 -19.3277 -2.7
      vertex 10.752 -18.623 -2.7
    endloop
  endfacet
  facet normal 0 0 -1
    outer loop
      vertex 8.3927 -20.7727 -2.7
      vertex 9.42675 -19.3277 -2.7
      vertex 9.82128 -20.1366 -2.7
    endloop
  endfacet
  facet normal 0 0 -1
    outer loop
      vertex 8.3927 -20.7727 -2.7
      vertex 8.05555 -19.9382 -2.7
      vertex 9.42675 -19.3277 -2.7
    endloop
  endfacet
  facet normal 0 0 -1
    outer loop
      vertex 6.7453 -20.4151 -2.7
      vertex 8.3927 -20.7727 -2.7
      vertex 6.94536 -21.2994 -2.7
    endloop
  endfacet
  facet normal 0 0 -1
    outer loop
      vertex 6.9306 -21.3048 -2.7
      vertex 6.94536 -21.2994 -2.7
      vertex 6.93808 -21.3024 -2.7
    endloop
  endfacet
  facet normal -0 0 -1
    outer loop
      vertex 6.94536 -21.2994 -2.7
      vertex 6.9306 -21.3048 -2.7
      vertex 6.7453 -20.4151 -2.7
    endloop
  endfacet
  facet normal 0 0 -1
    outer loop
      vertex 6.91567 -21.3097 -2.7
      vertex 6.9306 -21.3048 -2.7
      vertex 6.92323 -21.3075 -2.7
    endloop
  endfacet
  facet normal -0 0 -1
    outer loop
      vertex 6.9306 -21.3048 -2.7
      vertex 6.91567 -21.3097 -2.7
      vertex 6.7453 -20.4151 -2.7
    endloop
  endfacet
  facet normal 0 0 -1
    outer loop
      vertex 6.90059 -21.314 -2.7
      vertex 6.91567 -21.3097 -2.7
      vertex 6.90821 -21.3121 -2.7
    endloop
  endfacet
  facet normal -0 0 -1
    outer loop
      vertex 6.91567 -21.3097 -2.7
      vertex 6.90059 -21.314 -2.7
      vertex 6.7453 -20.4151 -2.7
    endloop
  endfacet
  facet normal 0 0 -1
    outer loop
      vertex 8.3927 -20.7727 -2.7
      vertex 6.7453 -20.4151 -2.7
      vertex 8.05555 -19.9382 -2.7
    endloop
  endfacet
  facet normal 0 0 -1
    outer loop
      vertex 5.42002 -21.7385 -2.7
      vertex 6.7453 -20.4151 -2.7
      vertex 6.90059 -21.314 -2.7
    endloop
  endfacet
  facet normal 0 0 -1
    outer loop
      vertex 3.89042 -22.0637 -2.7
      vertex 6.7453 -20.4151 -2.7
      vertex 5.42002 -21.7385 -2.7
    endloop
  endfacet
  facet normal 0 0 -1
    outer loop
      vertex 0.574657 -19.2839 -2.7
      vertex 3.89042 -22.0637 -2.7
      vertex 2.34186 -22.2813 -2.7
    endloop
  endfacet
  facet normal 0 0 -1
    outer loop
      vertex 0.574657 -19.2839 -2.7
      vertex 2.34186 -22.2813 -2.7
      vertex 0.781889 -22.3904 -2.7
    endloop
  endfacet
  facet normal 0 0 -1
    outer loop
      vertex 3.89042 -22.0637 -2.7
      vertex 0.574657 -19.2839 -2.7
      vertex 6.7453 -20.4151 -2.7
    endloop
  endfacet
  facet normal 0 0 -1
    outer loop
      vertex 0.301375 -22.3904 -2.7
      vertex 0.574657 -19.2839 -2.7
      vertex 0.781889 -22.3904 -2.7
    endloop
  endfacet
  facet normal -0 0 -1
    outer loop
      vertex 0.574657 -19.2839 -2.7
      vertex 0.301375 -22.3904 -2.7
      vertex 0.412481 -19.2609 -2.7
    endloop
  endfacet
  facet normal 0 0 -1
    outer loop
      vertex 0.248295 -19.2455 -2.7
      vertex 0.301375 -22.3904 -2.7
      vertex 0.248295 -22.3954 -2.7
    endloop
  endfacet
  facet normal 0 0 -1
    outer loop
      vertex 0.301375 -22.3904 -2.7
      vertex 0.248295 -19.2455 -2.7
      vertex 0.412481 -19.2609 -2.7
    endloop
  endfacet
  facet normal 0 0 -1
    outer loop
      vertex 0.0828991 -22.4031 -2.7
      vertex 0.248295 -19.2455 -2.7
      vertex 0.248295 -22.3954 -2.7
    endloop
  endfacet
  facet normal 0 0 -1
    outer loop
      vertex 0.0828991 -22.4031 -2.7
      vertex 0.0828991 -19.2378 -2.7
      vertex 0.248295 -19.2455 -2.7
    endloop
  endfacet
  facet normal 0 0 -1
    outer loop
      vertex -0.0828991 -22.4031 -2.7
      vertex 0.0828991 -19.2378 -2.7
      vertex 0.0828991 -22.4031 -2.7
    endloop
  endfacet
  facet normal 0 0 -1
    outer loop
      vertex -0.0828991 -22.4031 -2.7
      vertex -0.0828991 -19.2378 -2.7
      vertex 0.0828991 -19.2378 -2.7
    endloop
  endfacet
  facet normal 0 0 -1
    outer loop
      vertex -0.248295 -22.3954 -2.7
      vertex -0.0828991 -19.2378 -2.7
      vertex -0.0828991 -22.4031 -2.7
    endloop
  endfacet
  facet normal 0 0 -1
    outer loop
      vertex -0.248295 -22.3954 -2.7
      vertex -0.248295 -19.2455 -2.7
      vertex -0.0828991 -19.2378 -2.7
    endloop
  endfacet
  facet normal 0 0 -1
    outer loop
      vertex -0.412481 -22.38 -2.7
      vertex -0.248295 -19.2455 -2.7
      vertex -0.248295 -22.3954 -2.7
    endloop
  endfacet
  facet normal 0 0 -1
    outer loop
      vertex -0.412481 -22.38 -2.7
      vertex -0.412481 -19.2609 -2.7
      vertex -0.248295 -19.2455 -2.7
    endloop
  endfacet
  facet normal 0 0 -1
    outer loop
      vertex -0.574657 -22.357 -2.7
      vertex -0.412481 -19.2609 -2.7
      vertex -0.412481 -22.38 -2.7
    endloop
  endfacet
  facet normal 0 0 -1
    outer loop
      vertex -0.574657 -22.357 -2.7
      vertex -0.574657 -19.2839 -2.7
      vertex -0.412481 -19.2609 -2.7
    endloop
  endfacet
  facet normal 0 0 -1
    outer loop
      vertex -0.734035 -22.3265 -2.7
      vertex -0.574657 -19.2839 -2.7
      vertex -0.574657 -22.357 -2.7
    endloop
  endfacet
  facet normal 0 0 -1
    outer loop
      vertex -0.734035 -22.3265 -2.7
      vertex -0.734035 -19.3144 -2.7
      vertex -0.574657 -19.2839 -2.7
    endloop
  endfacet
  facet normal 0 0 -1
    outer loop
      vertex -0.889835 -22.2887 -2.7
      vertex -0.734035 -19.3144 -2.7
      vertex -0.734035 -22.3265 -2.7
    endloop
  endfacet
  facet normal 0 0 -1
    outer loop
      vertex -0.889835 -22.2887 -2.7
      vertex -0.889835 -19.3522 -2.7
      vertex -0.734035 -19.3144 -2.7
    endloop
  endfacet
  facet normal 0 0 -1
    outer loop
      vertex -1.0413 -22.2438 -2.7
      vertex -0.889835 -19.3522 -2.7
      vertex -0.889835 -22.2887 -2.7
    endloop
  endfacet
  facet normal 0 0 -1
    outer loop
      vertex -1.0413 -22.2438 -2.7
      vertex -1.0413 -19.3971 -2.7
      vertex -0.889835 -19.3522 -2.7
    endloop
  endfacet
  facet normal 0 0 -1
    outer loop
      vertex -1.18769 -22.1919 -2.7
      vertex -1.0413 -19.3971 -2.7
      vertex -1.0413 -22.2438 -2.7
    endloop
  endfacet
  facet normal 0 0 -1
    outer loop
      vertex -1.18769 -22.1919 -2.7
      vertex -1.18769 -19.449 -2.7
      vertex -1.0413 -19.3971 -2.7
    endloop
  endfacet
  facet normal 0 0 -1
    outer loop
      vertex -1.3283 -22.1333 -2.7
      vertex -1.18769 -19.449 -2.7
      vertex -1.18769 -22.1919 -2.7
    endloop
  endfacet
  facet normal 0 0 -1
    outer loop
      vertex -1.3283 -22.1333 -2.7
      vertex -1.3283 -19.5076 -2.7
      vertex -1.18769 -19.449 -2.7
    endloop
  endfacet
  facet normal 0 0 -1
    outer loop
      vertex -1.46243 -22.0683 -2.7
      vertex -1.3283 -19.5076 -2.7
      vertex -1.3283 -22.1333 -2.7
    endloop
  endfacet
  facet normal 0 0 -1
    outer loop
      vertex -1.46243 -22.0683 -2.7
      vertex -1.46243 -19.5726 -2.7
      vertex -1.3283 -19.5076 -2.7
    endloop
  endfacet
  facet normal 0 0 -1
    outer loop
      vertex -1.58944 -21.9973 -2.7
      vertex -1.46243 -19.5726 -2.7
      vertex -1.46243 -22.0683 -2.7
    endloop
  endfacet
  facet normal 0 0 -1
    outer loop
      vertex -1.58944 -21.9973 -2.7
      vertex -1.58944 -19.6436 -2.7
      vertex -1.46243 -19.5726 -2.7
    endloop
  endfacet
  facet normal 0 0 -1
    outer loop
      vertex -1.70871 -21.9205 -2.7
      vertex -1.58944 -19.6436 -2.7
      vertex -1.58944 -21.9973 -2.7
    endloop
  endfacet
  facet normal 0 0 -1
    outer loop
      vertex -1.70871 -21.9205 -2.7
      vertex -1.70871 -19.7204 -2.7
      vertex -1.58944 -19.6436 -2.7
    endloop
  endfacet
  facet normal 0 0 -1
    outer loop
      vertex -1.81965 -21.8384 -2.7
      vertex -1.70871 -19.7204 -2.7
      vertex -1.70871 -21.9205 -2.7
    endloop
  endfacet
  facet normal 0 0 -1
    outer loop
      vertex -1.81965 -21.8384 -2.7
      vertex -1.81965 -19.8025 -2.7
      vertex -1.70871 -19.7204 -2.7
    endloop
  endfacet
  facet normal 0 0 -1
    outer loop
      vertex -1.92173 -21.7513 -2.7
      vertex -1.81965 -19.8025 -2.7
      vertex -1.81965 -21.8384 -2.7
    endloop
  endfacet
  facet normal 0 0 -1
    outer loop
      vertex -1.92173 -21.7513 -2.7
      vertex -1.92173 -19.8896 -2.7
      vertex -1.81965 -19.8025 -2.7
    endloop
  endfacet
  facet normal 0 0 -1
    outer loop
      vertex -2.01444 -21.6596 -2.7
      vertex -1.92173 -19.8896 -2.7
      vertex -1.92173 -21.7513 -2.7
    endloop
  endfacet
  facet normal 0 0 -1
    outer loop
      vertex -2.01444 -21.6596 -2.7
      vertex -2.01444 -19.9813 -2.7
      vertex -1.92173 -19.8896 -2.7
    endloop
  endfacet
  facet normal 0 0 -1
    outer loop
      vertex -2.09734 -21.5639 -2.7
      vertex -2.01444 -19.9813 -2.7
      vertex -2.01444 -21.6596 -2.7
    endloop
  endfacet
  facet normal 0 0 -1
    outer loop
      vertex -2.09734 -21.5639 -2.7
      vertex -2.09734 -20.077 -2.7
      vertex -2.01444 -19.9813 -2.7
    endloop
  endfacet
  facet normal 0 0 -1
    outer loop
      vertex -2.17002 -21.4645 -2.7
      vertex -2.09734 -20.077 -2.7
      vertex -2.09734 -21.5639 -2.7
    endloop
  endfacet
  facet normal 0 0 -1
    outer loop
      vertex -2.17002 -21.4645 -2.7
      vertex -2.17002 -20.1763 -2.7
      vertex -2.09734 -20.077 -2.7
    endloop
  endfacet
  facet normal 0 0 -1
    outer loop
      vertex -2.23213 -21.3621 -2.7
      vertex -2.17002 -20.1763 -2.7
      vertex -2.17002 -21.4645 -2.7
    endloop
  endfacet
  facet normal 0 0 -1
    outer loop
      vertex -2.23213 -21.3621 -2.7
      vertex -2.23213 -20.2788 -2.7
      vertex -2.17002 -20.1763 -2.7
    endloop
  endfacet
  facet normal 0 0 -1
    outer loop
      vertex -2.28337 -21.2569 -2.7
      vertex -2.23213 -20.2788 -2.7
      vertex -2.23213 -21.3621 -2.7
    endloop
  endfacet
  facet normal 0 0 -1
    outer loop
      vertex -2.28337 -21.2569 -2.7
      vertex -2.28337 -20.3839 -2.7
      vertex -2.23213 -20.2788 -2.7
    endloop
  endfacet
  facet normal 0 0 -1
    outer loop
      vertex -2.32348 -21.1497 -2.7
      vertex -2.28337 -20.3839 -2.7
      vertex -2.28337 -21.2569 -2.7
    endloop
  endfacet
  facet normal 0 0 -1
    outer loop
      vertex -2.32348 -21.1497 -2.7
      vertex -2.32348 -20.4912 -2.7
      vertex -2.28337 -20.3839 -2.7
    endloop
  endfacet
  facet normal 0 0 -1
    outer loop
      vertex -2.35227 -21.0408 -2.7
      vertex -2.32348 -20.4912 -2.7
      vertex -2.32348 -21.1497 -2.7
    endloop
  endfacet
  facet normal 0 0 -1
    outer loop
      vertex -2.35227 -21.0408 -2.7
      vertex -2.35227 -20.6 -2.7
      vertex -2.32348 -20.4912 -2.7
    endloop
  endfacet
  facet normal 0 0 -1
    outer loop
      vertex -2.3696 -20.9309 -2.7
      vertex -2.35227 -20.6 -2.7
      vertex -2.35227 -21.0408 -2.7
    endloop
  endfacet
  facet normal 0 0 -1
    outer loop
      vertex -2.3696 -20.9309 -2.7
      vertex -2.3696 -20.71 -2.7
      vertex -2.35227 -20.6 -2.7
    endloop
  endfacet
  facet normal 0 -0 -1
    outer loop
      vertex -2.3696 -20.71 -2.7
      vertex -2.3696 -20.9309 -2.7
      vertex -2.37539 -20.8204 -2.7
    endloop
  endfacet
  facet normal 0 0 -1
    outer loop
      vertex 21.2948 -2.99278 -2.7
      vertex 24.7953 -1.0267 -2.7
      vertex 21.9313 -4.68534 -2.7
    endloop
  endfacet
  facet normal 0.927184 -0.374606 0
    outer loop
      vertex 20.4671 -9.11254 -5.72205e-07
      vertex 20.8716 -8.1113 -2.7
      vertex 20.8716 -8.1113 -5.72205e-07
    endloop
  endfacet
  facet normal 0.927184 -0.374606 0
    outer loop
      vertex 20.8716 -8.1113 -2.7
      vertex 20.4671 -9.11254 -5.72205e-07
      vertex 20.4671 -9.11254 -2.7
    endloop
  endfacet
  facet normal 0.788011 -0.615661 0
    outer loop
      vertex 17.1625 -14.401 -5.72205e-07
      vertex 18.1252 -13.1688 -2.7
      vertex 18.1252 -13.1688 -5.72205e-07
    endloop
  endfacet
  facet normal 0.788011 -0.615661 0
    outer loop
      vertex 18.1252 -13.1688 -2.7
      vertex 17.1625 -14.401 -5.72205e-07
      vertex 17.1625 -14.401 -2.7
    endloop
  endfacet
  facet normal 0.743145 -0.66913 0
    outer loop
      vertex 16.1161 -15.5631 -5.72205e-07
      vertex 17.1625 -14.401 -2.7
      vertex 17.1625 -14.401 -5.72205e-07
    endloop
  endfacet
  facet normal 0.743145 -0.66913 0
    outer loop
      vertex 17.1625 -14.401 -2.7
      vertex 16.1161 -15.5631 -5.72205e-07
      vertex 16.1161 -15.5631 -2.7
    endloop
  endfacet
  facet normal 0.275638 -0.961262 0
    outer loop
      vertex 5.42002 -21.7385 -2.7
      vertex 6.90059 -21.314 -5.72205e-07
      vertex 5.42002 -21.7385 -5.72205e-07
    endloop
  endfacet
  facet normal 0.275638 -0.961262 0
    outer loop
      vertex 6.90059 -21.314 -5.72205e-07
      vertex 5.42002 -21.7385 -2.7
      vertex 6.90059 -21.314 -2.7
    endloop
  endfacet
  facet normal 0.275715 -0.96124 0
    outer loop
      vertex 6.91567 -21.3097 -2.7
      vertex 6.92323 -21.3075 -5.72205e-07
      vertex 6.91567 -21.3097 -5.72205e-07
    endloop
  endfacet
  facet normal 0.275715 -0.96124 0
    outer loop
      vertex 6.92323 -21.3075 -5.72205e-07
      vertex 6.91567 -21.3097 -2.7
      vertex 6.92323 -21.3075 -2.7
    endloop
  endfacet
  facet normal 0.34202 -0.939693 0
    outer loop
      vertex 6.94536 -21.2994 -2.7
      vertex 8.3927 -20.7727 -5.72205e-07
      vertex 6.94536 -21.2994 -5.72205e-07
    endloop
  endfacet
  facet normal 0.34202 -0.939693 0
    outer loop
      vertex 8.3927 -20.7727 -5.72205e-07
      vertex 6.94536 -21.2994 -2.7
      vertex 8.3927 -20.7727 -2.7
    endloop
  endfacet
  facet normal 0.342016 -0.939694 0
    outer loop
      vertex 6.92323 -21.3075 -2.7
      vertex 6.9306 -21.3048 -5.72205e-07
      vertex 6.92323 -21.3075 -5.72205e-07
    endloop
  endfacet
  facet normal 0.342016 -0.939694 0
    outer loop
      vertex 6.9306 -21.3048 -5.72205e-07
      vertex 6.92323 -21.3075 -2.7
      vertex 6.9306 -21.3048 -2.7
    endloop
  endfacet
  facet normal 0.0697549 -0.997564 0
    outer loop
      vertex 0.781889 -22.3904 -2.7
      vertex 2.34186 -22.2813 -5.72205e-07
      vertex 0.781889 -22.3904 -5.72205e-07
    endloop
  endfacet
  facet normal 0.0697549 -0.997564 0
    outer loop
      vertex 2.34186 -22.2813 -5.72205e-07
      vertex 0.781889 -22.3904 -2.7
      vertex 2.34186 -22.2813 -2.7
    endloop
  endfacet
  facet normal 0.529918 -0.848049 0
    outer loop
      vertex 11.202 -19.4025 -2.7
      vertex 12.5282 -18.5738 -5.72205e-07
      vertex 11.202 -19.4025 -5.72205e-07
    endloop
  endfacet
  facet normal 0.529918 -0.848049 0
    outer loop
      vertex 12.5282 -18.5738 -5.72205e-07
      vertex 11.202 -19.4025 -2.7
      vertex 12.5282 -18.5738 -2.7
    endloop
  endfacet
  facet normal 0.469472 -0.882947 0
    outer loop
      vertex 9.82128 -20.1366 -2.7
      vertex 11.202 -19.4025 -5.72205e-07
      vertex 9.82128 -20.1366 -5.72205e-07
    endloop
  endfacet
  facet normal 0.469472 -0.882947 0
    outer loop
      vertex 11.202 -19.4025 -5.72205e-07
      vertex 9.82128 -20.1366 -2.7
      vertex 11.202 -19.4025 -2.7
    endloop
  endfacet
  facet normal 0 0 1
    outer loop
      vertex 21.4516 -1.50004 -5.72205e-07
      vertex 24.7953 -1.0267 -5.72205e-07
      vertex 21.4599 -1.26305 -5.72205e-07
    endloop
  endfacet
  facet normal 0 0 1
    outer loop
      vertex 21.2948 -2.99278 -5.72205e-07
      vertex 24.7953 -1.0267 -5.72205e-07
      vertex 21.4516 -1.50004 -5.72205e-07
    endloop
  endfacet
  facet normal 0 0 1
    outer loop
      vertex 24.7953 -1.0267 -5.72205e-07
      vertex 21.2948 -2.99278 -5.72205e-07
      vertex 21.9313 -4.68534 -5.72205e-07
    endloop
  endfacet
  facet normal -0 0 1
    outer loop
      vertex 21.0341 -4.47094 -5.72205e-07
      vertex 21.9313 -4.68534 -5.72205e-07
      vertex 21.2948 -2.99278 -5.72205e-07
    endloop
  endfacet
  facet normal 0 0 1
    outer loop
      vertex 21.9313 -4.68534 -5.72205e-07
      vertex 20.8716 -8.1113 -5.72205e-07
      vertex 24.3294 -4.8929 -5.72205e-07
    endloop
  endfacet
  facet normal 0 0 1
    outer loop
      vertex 20.671 -5.92731 -5.72205e-07
      vertex 21.9313 -4.68534 -5.72205e-07
      vertex 21.0341 -4.47094 -5.72205e-07
    endloop
  endfacet
  facet normal 0 0 1
    outer loop
      vertex 21.9313 -4.68534 -5.72205e-07
      vertex 20.671 -5.92731 -5.72205e-07
      vertex 20.8716 -8.1113 -5.72205e-07
    endloop
  endfacet
  facet normal -0 0 1
    outer loop
      vertex 20.2072 -7.35481 -5.72205e-07
      vertex 20.8716 -8.1113 -5.72205e-07
      vertex 20.671 -5.92731 -5.72205e-07
    endloop
  endfacet
  facet normal 0 0 1
    outer loop
      vertex 19.6449 -8.74648 -5.72205e-07
      vertex 20.8716 -8.1113 -5.72205e-07
      vertex 20.2072 -7.35481 -5.72205e-07
    endloop
  endfacet
  facet normal 0 0 1
    outer loop
      vertex 20.8716 -8.1113 -5.72205e-07
      vertex 19.6449 -8.74648 -5.72205e-07
      vertex 20.4671 -9.11254 -5.72205e-07
    endloop
  endfacet
  facet normal 0 0 1
    outer loop
      vertex 20.4671 -9.11254 -5.72205e-07
      vertex 19.6449 -8.74648 -5.72205e-07
      vertex 19.7816 -10.5181 -5.72205e-07
    endloop
  endfacet
  facet normal -0 0 1
    outer loop
      vertex 18.9869 -10.0955 -5.72205e-07
      vertex 19.7816 -10.5181 -5.72205e-07
      vertex 19.6449 -8.74648 -5.72205e-07
    endloop
  endfacet
  facet normal 0 0 1
    outer loop
      vertex 19.7816 -10.5181 -5.72205e-07
      vertex 18.9869 -10.0955 -5.72205e-07
      vertex 18.9997 -11.8723 -5.72205e-07
    endloop
  endfacet
  facet normal -0 0 1
    outer loop
      vertex 18.2365 -11.3954 -5.72205e-07
      vertex 18.9997 -11.8723 -5.72205e-07
      vertex 18.9869 -10.0955 -5.72205e-07
    endloop
  endfacet
  facet normal 0 0 1
    outer loop
      vertex 18.2365 -11.3954 -5.72205e-07
      vertex 18.1252 -13.1688 -5.72205e-07
      vertex 18.9997 -11.8723 -5.72205e-07
    endloop
  endfacet
  facet normal -0 0 1
    outer loop
      vertex 17.3971 -12.6398 -5.72205e-07
      vertex 18.1252 -13.1688 -5.72205e-07
      vertex 18.2365 -11.3954 -5.72205e-07
    endloop
  endfacet
  facet normal 0 0 1
    outer loop
      vertex 17.3971 -12.6398 -5.72205e-07
      vertex 17.1625 -14.401 -5.72205e-07
      vertex 18.1252 -13.1688 -5.72205e-07
    endloop
  endfacet
  facet normal -0 0 1
    outer loop
      vertex 16.473 -13.8225 -5.72205e-07
      vertex 17.1625 -14.401 -5.72205e-07
      vertex 17.3971 -12.6398 -5.72205e-07
    endloop
  endfacet
  facet normal 0 0 1
    outer loop
      vertex 16.473 -13.8225 -5.72205e-07
      vertex 16.1161 -15.5631 -5.72205e-07
      vertex 17.1625 -14.401 -5.72205e-07
    endloop
  endfacet
  facet normal -0 0 1
    outer loop
      vertex 15.4687 -14.938 -5.72205e-07
      vertex 16.1161 -15.5631 -5.72205e-07
      vertex 16.473 -13.8225 -5.72205e-07
    endloop
  endfacet
  facet normal 0 0 1
    outer loop
      vertex 15.4687 -14.938 -5.72205e-07
      vertex 14.9912 -16.6494 -5.72205e-07
      vertex 16.1161 -15.5631 -5.72205e-07
    endloop
  endfacet
  facet normal -0 0 1
    outer loop
      vertex 14.389 -15.9806 -5.72205e-07
      vertex 14.9912 -16.6494 -5.72205e-07
      vertex 15.4687 -14.938 -5.72205e-07
    endloop
  endfacet
  facet normal 0 0 1
    outer loop
      vertex 14.389 -15.9806 -5.72205e-07
      vertex 13.7933 -17.6546 -5.72205e-07
      vertex 14.9912 -16.6494 -5.72205e-07
    endloop
  endfacet
  facet normal -0 0 1
    outer loop
      vertex 13.2392 -16.9454 -5.72205e-07
      vertex 13.7933 -17.6546 -5.72205e-07
      vertex 14.389 -15.9806 -5.72205e-07
    endloop
  endfacet
  facet normal 0 0 1
    outer loop
      vertex 13.2392 -16.9454 -5.72205e-07
      vertex 12.5282 -18.5738 -5.72205e-07
      vertex 13.7933 -17.6546 -5.72205e-07
    endloop
  endfacet
  facet normal -0 0 1
    outer loop
      vertex 12.0249 -17.8276 -5.72205e-07
      vertex 12.5282 -18.5738 -5.72205e-07
      vertex 13.2392 -16.9454 -5.72205e-07
    endloop
  endfacet
  facet normal 0 0 1
    outer loop
      vertex 12.0249 -17.8276 -5.72205e-07
      vertex 11.202 -19.4025 -5.72205e-07
      vertex 12.5282 -18.5738 -5.72205e-07
    endloop
  endfacet
  facet normal -0 0 1
    outer loop
      vertex 10.752 -18.623 -5.72205e-07
      vertex 11.202 -19.4025 -5.72205e-07
      vertex 12.0249 -17.8276 -5.72205e-07
    endloop
  endfacet
  facet normal 0 0 1
    outer loop
      vertex 10.752 -18.623 -5.72205e-07
      vertex 9.82128 -20.1366 -5.72205e-07
      vertex 11.202 -19.4025 -5.72205e-07
    endloop
  endfacet
  facet normal -0 0 1
    outer loop
      vertex 9.42675 -19.3277 -5.72205e-07
      vertex 9.82128 -20.1366 -5.72205e-07
      vertex 10.752 -18.623 -5.72205e-07
    endloop
  endfacet
  facet normal 0 0 1
    outer loop
      vertex 9.42675 -19.3277 -5.72205e-07
      vertex 8.3927 -20.7727 -5.72205e-07
      vertex 9.82128 -20.1366 -5.72205e-07
    endloop
  endfacet
  facet normal -0 0 1
    outer loop
      vertex 8.05555 -19.9382 -5.72205e-07
      vertex 8.3927 -20.7727 -5.72205e-07
      vertex 9.42675 -19.3277 -5.72205e-07
    endloop
  endfacet
  facet normal -0 0 1
    outer loop
      vertex 7.21214 -20.7405 -5.72205e-07
      vertex 8.3927 -20.7727 -5.72205e-07
      vertex 8.05555 -19.9382 -5.72205e-07
    endloop
  endfacet
  facet normal 0 0 1
    outer loop
      vertex 7.23389 -20.8952 -5.72205e-07
      vertex 8.3927 -20.7727 -5.72205e-07
      vertex 7.23389 -20.8638 -5.72205e-07
    endloop
  endfacet
  facet normal 0 0 1
    outer loop
      vertex 7.2317 -20.9266 -5.72205e-07
      vertex 8.3927 -20.7727 -5.72205e-07
      vertex 7.23389 -20.8952 -5.72205e-07
    endloop
  endfacet
  facet normal 0 0 1
    outer loop
      vertex 7.22733 -20.9577 -5.72205e-07
      vertex 8.3927 -20.7727 -5.72205e-07
      vertex 7.2317 -20.9266 -5.72205e-07
    endloop
  endfacet
  facet normal 0 0 1
    outer loop
      vertex 7.2208 -20.9884 -5.72205e-07
      vertex 8.3927 -20.7727 -5.72205e-07
      vertex 7.22733 -20.9577 -5.72205e-07
    endloop
  endfacet
  facet normal 0 0 1
    outer loop
      vertex 7.21214 -21.0186 -5.72205e-07
      vertex 8.3927 -20.7727 -5.72205e-07
      vertex 7.2208 -20.9884 -5.72205e-07
    endloop
  endfacet
  facet normal 0 0 1
    outer loop
      vertex 7.2014 -21.0481 -5.72205e-07
      vertex 8.3927 -20.7727 -5.72205e-07
      vertex 7.21214 -21.0186 -5.72205e-07
    endloop
  endfacet
  facet normal 0 0 1
    outer loop
      vertex 7.18863 -21.0768 -5.72205e-07
      vertex 8.3927 -20.7727 -5.72205e-07
      vertex 7.2014 -21.0481 -5.72205e-07
    endloop
  endfacet
  facet normal 0 0 1
    outer loop
      vertex 7.17388 -21.1045 -5.72205e-07
      vertex 8.3927 -20.7727 -5.72205e-07
      vertex 7.18863 -21.0768 -5.72205e-07
    endloop
  endfacet
  facet normal 0 0 1
    outer loop
      vertex 7.15724 -21.1312 -5.72205e-07
      vertex 8.3927 -20.7727 -5.72205e-07
      vertex 7.17388 -21.1045 -5.72205e-07
    endloop
  endfacet
  facet normal 0 0 1
    outer loop
      vertex 7.13877 -21.1566 -5.72205e-07
      vertex 8.3927 -20.7727 -5.72205e-07
      vertex 7.15724 -21.1312 -5.72205e-07
    endloop
  endfacet
  facet normal 0 0 1
    outer loop
      vertex 7.11858 -21.1806 -5.72205e-07
      vertex 8.3927 -20.7727 -5.72205e-07
      vertex 7.13877 -21.1566 -5.72205e-07
    endloop
  endfacet
  facet normal 0 0 1
    outer loop
      vertex 7.09676 -21.2032 -5.72205e-07
      vertex 8.3927 -20.7727 -5.72205e-07
      vertex 7.11858 -21.1806 -5.72205e-07
    endloop
  endfacet
  facet normal 0 0 1
    outer loop
      vertex 7.07342 -21.2242 -5.72205e-07
      vertex 8.3927 -20.7727 -5.72205e-07
      vertex 7.09676 -21.2032 -5.72205e-07
    endloop
  endfacet
  facet normal 0 0 1
    outer loop
      vertex 7.04867 -21.2436 -5.72205e-07
      vertex 8.3927 -20.7727 -5.72205e-07
      vertex 7.07342 -21.2242 -5.72205e-07
    endloop
  endfacet
  facet normal 0 0 1
    outer loop
      vertex 7.02263 -21.2611 -5.72205e-07
      vertex 8.3927 -20.7727 -5.72205e-07
      vertex 7.04867 -21.2436 -5.72205e-07
    endloop
  endfacet
  facet normal 0 0 1
    outer loop
      vertex 6.99543 -21.2768 -5.72205e-07
      vertex 8.3927 -20.7727 -5.72205e-07
      vertex 7.02263 -21.2611 -5.72205e-07
    endloop
  endfacet
  facet normal 0 0 1
    outer loop
      vertex 6.9672 -21.2906 -5.72205e-07
      vertex 8.3927 -20.7727 -5.72205e-07
      vertex 6.99543 -21.2768 -5.72205e-07
    endloop
  endfacet
  facet normal 0 0 1
    outer loop
      vertex 8.3927 -20.7727 -5.72205e-07
      vertex 6.9672 -21.2906 -5.72205e-07
      vertex 6.94536 -21.2994 -5.72205e-07
    endloop
  endfacet
  facet normal 0 0 1
    outer loop
      vertex 8.3927 -20.7727 -5.72205e-07
      vertex 7.2317 -20.8325 -5.72205e-07
      vertex 7.23389 -20.8638 -5.72205e-07
    endloop
  endfacet
  facet normal 0 0 1
    outer loop
      vertex 8.3927 -20.7727 -5.72205e-07
      vertex 7.22733 -20.8014 -5.72205e-07
      vertex 7.2317 -20.8325 -5.72205e-07
    endloop
  endfacet
  facet normal 0 0 1
    outer loop
      vertex 8.3927 -20.7727 -5.72205e-07
      vertex 7.2208 -20.7707 -5.72205e-07
      vertex 7.22733 -20.8014 -5.72205e-07
    endloop
  endfacet
  facet normal 0 0 1
    outer loop
      vertex 8.3927 -20.7727 -5.72205e-07
      vertex 7.21214 -20.7405 -5.72205e-07
      vertex 7.2208 -20.7707 -5.72205e-07
    endloop
  endfacet
  facet normal 0 0 1
    outer loop
      vertex 8.05555 -19.9382 -5.72205e-07
      vertex 7.2014 -20.711 -5.72205e-07
      vertex 7.21214 -20.7405 -5.72205e-07
    endloop
  endfacet
  facet normal 0 0 1
    outer loop
      vertex 8.05555 -19.9382 -5.72205e-07
      vertex 7.18863 -20.6823 -5.72205e-07
      vertex 7.2014 -20.711 -5.72205e-07
    endloop
  endfacet
  facet normal 0 0 1
    outer loop
      vertex 8.05555 -19.9382 -5.72205e-07
      vertex 7.17388 -20.6545 -5.72205e-07
      vertex 7.18863 -20.6823 -5.72205e-07
    endloop
  endfacet
  facet normal 0 0 1
    outer loop
      vertex 8.05555 -19.9382 -5.72205e-07
      vertex 7.15724 -20.6279 -5.72205e-07
      vertex 7.17388 -20.6545 -5.72205e-07
    endloop
  endfacet
  facet normal 0 0 1
    outer loop
      vertex 8.05555 -19.9382 -5.72205e-07
      vertex 7.13877 -20.6025 -5.72205e-07
      vertex 7.15724 -20.6279 -5.72205e-07
    endloop
  endfacet
  facet normal 0 0 1
    outer loop
      vertex 8.05555 -19.9382 -5.72205e-07
      vertex 7.11858 -20.5784 -5.72205e-07
      vertex 7.13877 -20.6025 -5.72205e-07
    endloop
  endfacet
  facet normal 0 0 1
    outer loop
      vertex 8.05555 -19.9382 -5.72205e-07
      vertex 7.09676 -20.5558 -5.72205e-07
      vertex 7.11858 -20.5784 -5.72205e-07
    endloop
  endfacet
  facet normal 0 0 1
    outer loop
      vertex 8.05555 -19.9382 -5.72205e-07
      vertex 7.07342 -20.5348 -5.72205e-07
      vertex 7.09676 -20.5558 -5.72205e-07
    endloop
  endfacet
  facet normal 0 0 1
    outer loop
      vertex 8.05555 -19.9382 -5.72205e-07
      vertex 7.04867 -20.5155 -5.72205e-07
      vertex 7.07342 -20.5348 -5.72205e-07
    endloop
  endfacet
  facet normal 0 0 1
    outer loop
      vertex 8.05555 -19.9382 -5.72205e-07
      vertex 7.02263 -20.4979 -5.72205e-07
      vertex 7.04867 -20.5155 -5.72205e-07
    endloop
  endfacet
  facet normal 0 0 1
    outer loop
      vertex 8.05555 -19.9382 -5.72205e-07
      vertex 6.99543 -20.4822 -5.72205e-07
      vertex 7.02263 -20.4979 -5.72205e-07
    endloop
  endfacet
  facet normal 0 0 1
    outer loop
      vertex 8.05555 -19.9382 -5.72205e-07
      vertex 6.9672 -20.4684 -5.72205e-07
      vertex 6.99543 -20.4822 -5.72205e-07
    endloop
  endfacet
  facet normal 0 0 1
    outer loop
      vertex 8.05555 -19.9382 -5.72205e-07
      vertex 6.93808 -20.4567 -5.72205e-07
      vertex 6.9672 -20.4684 -5.72205e-07
    endloop
  endfacet
  facet normal 0 0 1
    outer loop
      vertex 8.05555 -19.9382 -5.72205e-07
      vertex 6.90821 -20.447 -5.72205e-07
      vertex 6.93808 -20.4567 -5.72205e-07
    endloop
  endfacet
  facet normal 0 0 1
    outer loop
      vertex 8.05555 -19.9382 -5.72205e-07
      vertex 6.87773 -20.4394 -5.72205e-07
      vertex 6.90821 -20.447 -5.72205e-07
    endloop
  endfacet
  facet normal 0 -0 1
    outer loop
      vertex 6.87773 -20.4394 -5.72205e-07
      vertex 8.05555 -19.9382 -5.72205e-07
      vertex 6.7453 -20.4151 -5.72205e-07
    endloop
  endfacet
  facet normal -0 0 1
    outer loop
      vertex 6.87773 -21.3197 -5.72205e-07
      vertex 5.42002 -21.7385 -5.72205e-07
      vertex 6.90059 -21.314 -5.72205e-07
    endloop
  endfacet
  facet normal -0 0 1
    outer loop
      vertex 6.8468 -21.3251 -5.72205e-07
      vertex 5.42002 -21.7385 -5.72205e-07
      vertex 6.87773 -21.3197 -5.72205e-07
    endloop
  endfacet
  facet normal 0 0 1
    outer loop
      vertex 6.8468 -21.3251 -5.72205e-07
      vertex 3.89042 -22.0637 -5.72205e-07
      vertex 5.42002 -21.7385 -5.72205e-07
    endloop
  endfacet
  facet normal 0 0 1
    outer loop
      vertex 0.574657 -22.357 -5.72205e-07
      vertex 3.89042 -22.0637 -5.72205e-07
      vertex 6.8468 -21.3251 -5.72205e-07
    endloop
  endfacet
  facet normal 0 0 1
    outer loop
      vertex 3.89042 -22.0637 -5.72205e-07
      vertex 0.574657 -22.357 -5.72205e-07
      vertex 2.34186 -22.2813 -5.72205e-07
    endloop
  endfacet
  facet normal 0 0 1
    outer loop
      vertex 2.34186 -22.2813 -5.72205e-07
      vertex 0.574657 -22.357 -5.72205e-07
      vertex 0.781889 -22.3904 -5.72205e-07
    endloop
  endfacet
  facet normal -0 0 1
    outer loop
      vertex 0.412481 -22.38 -5.72205e-07
      vertex 0.781889 -22.3904 -5.72205e-07
      vertex 0.574657 -22.357 -5.72205e-07
    endloop
  endfacet
  facet normal 0 0 1
    outer loop
      vertex 0.781889 -22.3904 -5.72205e-07
      vertex 0.412481 -22.38 -5.72205e-07
      vertex 0.301375 -22.3904 -5.72205e-07
    endloop
  endfacet
  facet normal 0 0 1
    outer loop
      vertex 6.9306 -21.3048 -5.72205e-07
      vertex 6.91567 -21.3097 -5.72205e-07
      vertex 6.92323 -21.3075 -5.72205e-07
    endloop
  endfacet
  facet normal 0.787438 -0.616394 0
    outer loop
      vertex 21.9313 -4.68534 -5.72205e-07
      vertex 24.7953 -1.0267 -2.7
      vertex 24.7953 -1.0267 -5.72205e-07
    endloop
  endfacet
  facet normal 0.787438 -0.616394 0
    outer loop
      vertex 24.7953 -1.0267 -2.7
      vertex 21.9313 -4.68534 -5.72205e-07
      vertex 21.9313 -4.68534 -2.7
    endloop
  endfacet
  facet normal -0.0706835 0.997499 0
    outer loop
      vertex 24.7953 -1.0267 -2.7
      vertex 21.4599 -1.26305 -5.72205e-07
      vertex 24.7953 -1.0267 -5.72205e-07
    endloop
  endfacet
  facet normal -0.0706835 0.997499 0
    outer loop
      vertex 21.4599 -1.26305 -5.72205e-07
      vertex 24.7953 -1.0267 -2.7
      vertex 21.4599 -1.26305 -2.7
    endloop
  endfacet
  facet normal 0.681318 -0.731987 0
    outer loop
      vertex 20.8716 -8.1113 -2.7
      vertex 24.3294 -4.8929 -5.72205e-07
      vertex 20.8716 -8.1113 -5.72205e-07
    endloop
  endfacet
  facet normal 0.681318 -0.731987 0
    outer loop
      vertex 24.3294 -4.8929 -5.72205e-07
      vertex 20.8716 -8.1113 -2.7
      vertex 24.3294 -4.8929 -2.7
    endloop
  endfacet
  facet normal 0.08623 0.996275 -0
    outer loop
      vertex 24.3294 -4.8929 -2.7
      vertex 21.9313 -4.68534 -5.72205e-07
      vertex 24.3294 -4.8929 -5.72205e-07
    endloop
  endfacet
  facet normal 0.08623 0.996275 0
    outer loop
      vertex 21.9313 -4.68534 -5.72205e-07
      vertex 24.3294 -4.8929 -2.7
      vertex 21.9313 -4.68534 -2.7
    endloop
  endfacet
  facet normal -0.999391 0.0348992 0
    outer loop
      vertex 21.4516 -1.50004 -2.7
      vertex 21.4599 -1.26305 -5.72205e-07
      vertex 21.4599 -1.26305 -2.7
    endloop
  endfacet
  facet normal -0.999391 0.0348992 0
    outer loop
      vertex 21.4599 -1.26305 -5.72205e-07
      vertex 21.4516 -1.50004 -2.7
      vertex 21.4516 -1.50004 -5.72205e-07
    endloop
  endfacet
  facet normal -0.694658 0.71934 0
    outer loop
      vertex 15.4687 -14.938 -2.7
      vertex 14.389 -15.9806 -5.72205e-07
      vertex 15.4687 -14.938 -5.72205e-07
    endloop
  endfacet
  facet normal -0.694658 0.71934 0
    outer loop
      vertex 14.389 -15.9806 -5.72205e-07
      vertex 15.4687 -14.938 -2.7
      vertex 14.389 -15.9806 -2.7
    endloop
  endfacet
  facet normal -0.898794 0.438372 0
    outer loop
      vertex 18.9869 -10.0955 -2.7
      vertex 19.6449 -8.74648 -5.72205e-07
      vertex 19.6449 -8.74648 -2.7
    endloop
  endfacet
  facet normal -0.898794 0.438372 0
    outer loop
      vertex 19.6449 -8.74648 -5.72205e-07
      vertex 18.9869 -10.0955 -2.7
      vertex 18.9869 -10.0955 -5.72205e-07
    endloop
  endfacet
  facet normal -0.406737 0.913545 0
    outer loop
      vertex 9.42675 -19.3277 -2.7
      vertex 8.05555 -19.9382 -5.72205e-07
      vertex 9.42675 -19.3277 -5.72205e-07
    endloop
  endfacet
  facet normal -0.406737 0.913545 0
    outer loop
      vertex 8.05555 -19.9382 -5.72205e-07
      vertex 9.42675 -19.3277 -2.7
      vertex 8.05555 -19.9382 -2.7
    endloop
  endfacet
  facet normal -0.529919 0.848048 0
    outer loop
      vertex 12.0249 -17.8276 -2.7
      vertex 10.752 -18.623 -5.72205e-07
      vertex 12.0249 -17.8276 -5.72205e-07
    endloop
  endfacet
  facet normal -0.529919 0.848048 0
    outer loop
      vertex 10.752 -18.623 -5.72205e-07
      vertex 12.0249 -17.8276 -2.7
      vertex 10.752 -18.623 -2.7
    endloop
  endfacet
  facet normal -0.970296 0.241921 0
    outer loop
      vertex 20.671 -5.92731 -2.7
      vertex 21.0341 -4.47094 -5.72205e-07
      vertex 21.0341 -4.47094 -2.7
    endloop
  endfacet
  facet normal -0.970296 0.241921 0
    outer loop
      vertex 21.0341 -4.47094 -5.72205e-07
      vertex 20.671 -5.92731 -2.7
      vertex 20.671 -5.92731 -5.72205e-07
    endloop
  endfacet
  facet normal -0.829037 0.559193 0
    outer loop
      vertex 17.3971 -12.6398 -2.7
      vertex 18.2365 -11.3954 -5.72205e-07
      vertex 18.2365 -11.3954 -2.7
    endloop
  endfacet
  facet normal -0.829037 0.559193 0
    outer loop
      vertex 18.2365 -11.3954 -5.72205e-07
      vertex 17.3971 -12.6398 -2.7
      vertex 17.3971 -12.6398 -5.72205e-07
    endloop
  endfacet
  facet normal -0.866026 0.499999 0
    outer loop
      vertex 18.2365 -11.3954 -2.7
      vertex 18.9869 -10.0955 -5.72205e-07
      vertex 18.9869 -10.0955 -2.7
    endloop
  endfacet
  facet normal -0.866026 0.499999 0
    outer loop
      vertex 18.9869 -10.0955 -5.72205e-07
      vertex 18.2365 -11.3954 -2.7
      vertex 18.2365 -11.3954 -5.72205e-07
    endloop
  endfacet
  facet normal -0.469472 0.882947 0
    outer loop
      vertex 10.752 -18.623 -2.7
      vertex 9.42675 -19.3277 -5.72205e-07
      vertex 10.752 -18.623 -5.72205e-07
    endloop
  endfacet
  facet normal -0.469472 0.882947 0
    outer loop
      vertex 9.42675 -19.3277 -5.72205e-07
      vertex 10.752 -18.623 -2.7
      vertex 9.42675 -19.3277 -2.7
    endloop
  endfacet
  facet normal -0.587784 0.809018 0
    outer loop
      vertex 13.2392 -16.9454 -2.7
      vertex 12.0249 -17.8276 -5.72205e-07
      vertex 13.2392 -16.9454 -5.72205e-07
    endloop
  endfacet
  facet normal -0.587784 0.809018 0
    outer loop
      vertex 12.0249 -17.8276 -5.72205e-07
      vertex 13.2392 -16.9454 -2.7
      vertex 12.0249 -17.8276 -2.7
    endloop
  endfacet
  facet normal -0.984808 0.173648 0
    outer loop
      vertex 21.0341 -4.47094 -2.7
      vertex 21.2948 -2.99278 -5.72205e-07
      vertex 21.2948 -2.99278 -2.7
    endloop
  endfacet
  facet normal -0.984808 0.173648 0
    outer loop
      vertex 21.2948 -2.99278 -5.72205e-07
      vertex 21.0341 -4.47094 -2.7
      vertex 21.0341 -4.47094 -5.72205e-07
    endloop
  endfacet
  facet normal -0.994522 0.10453 0
    outer loop
      vertex 21.2948 -2.99278 -2.7
      vertex 21.4516 -1.50004 -5.72205e-07
      vertex 21.4516 -1.50004 -2.7
    endloop
  endfacet
  facet normal -0.994522 0.10453 0
    outer loop
      vertex 21.4516 -1.50004 -5.72205e-07
      vertex 21.2948 -2.99278 -2.7
      vertex 21.2948 -2.99278 -5.72205e-07
    endloop
  endfacet
  facet normal -0.927184 0.374606 0
    outer loop
      vertex 19.6449 -8.74648 -2.7
      vertex 20.2072 -7.35481 -5.72205e-07
      vertex 20.2072 -7.35481 -2.7
    endloop
  endfacet
  facet normal -0.927184 0.374606 0
    outer loop
      vertex 20.2072 -7.35481 -5.72205e-07
      vertex 19.6449 -8.74648 -2.7
      vertex 19.6449 -8.74648 -5.72205e-07
    endloop
  endfacet
  facet normal -0.951056 0.309018 0
    outer loop
      vertex 20.2072 -7.35481 -2.7
      vertex 20.671 -5.92731 -5.72205e-07
      vertex 20.671 -5.92731 -2.7
    endloop
  endfacet
  facet normal -0.951056 0.309018 0
    outer loop
      vertex 20.671 -5.92731 -5.72205e-07
      vertex 20.2072 -7.35481 -2.7
      vertex 20.2072 -7.35481 -5.72205e-07
    endloop
  endfacet
  facet normal -0.788011 0.615662 0
    outer loop
      vertex 16.473 -13.8225 -2.7
      vertex 17.3971 -12.6398 -5.72205e-07
      vertex 17.3971 -12.6398 -2.7
    endloop
  endfacet
  facet normal -0.788011 0.615662 0
    outer loop
      vertex 17.3971 -12.6398 -5.72205e-07
      vertex 16.473 -13.8225 -2.7
      vertex 16.473 -13.8225 -5.72205e-07
    endloop
  endfacet
  facet normal -0.743145 0.66913 0
    outer loop
      vertex 15.4687 -14.938 -2.7
      vertex 16.473 -13.8225 -5.72205e-07
      vertex 16.473 -13.8225 -2.7
    endloop
  endfacet
  facet normal -0.743145 0.66913 0
    outer loop
      vertex 16.473 -13.8225 -5.72205e-07
      vertex 15.4687 -14.938 -2.7
      vertex 15.4687 -14.938 -5.72205e-07
    endloop
  endfacet
  facet normal -0.342019 0.939693 0
    outer loop
      vertex 8.05555 -19.9382 -2.7
      vertex 6.7453 -20.4151 -5.72205e-07
      vertex 8.05555 -19.9382 -5.72205e-07
    endloop
  endfacet
  facet normal -0.342019 0.939693 0
    outer loop
      vertex 6.7453 -20.4151 -5.72205e-07
      vertex 8.05555 -19.9382 -2.7
      vertex 6.7453 -20.4151 -2.7
    endloop
  endfacet
  facet normal -0.642788 0.766044 0
    outer loop
      vertex 14.389 -15.9806 -2.7
      vertex 13.2392 -16.9454 -5.72205e-07
      vertex 14.389 -15.9806 -5.72205e-07
    endloop
  endfacet
  facet normal -0.642788 0.766044 0
    outer loop
      vertex 13.2392 -16.9454 -5.72205e-07
      vertex 14.389 -15.9806 -2.7
      vertex 13.2392 -16.9454 -2.7
    endloop
  endfacet
  facet normal -0.936642 -0.350287 0
    outer loop
      vertex -2.28337 -21.2569 -2.7
      vertex -2.32348 -21.1497 0.95
      vertex -2.32348 -21.1497 -2.7
    endloop
  endfacet
  facet normal -0.936642 -0.350287 0
    outer loop
      vertex -2.32348 -21.1497 0.95
      vertex -2.28337 -21.2569 -2.7
      vertex -2.28337 -21.2569 0.95
    endloop
  endfacet
  facet normal 0.0465619 -0.998915 0
    outer loop
      vertex 0.0828991 -22.4031 -2.7
      vertex 0.248295 -22.3954 0.95
      vertex 0.0828991 -22.4031 0.95
    endloop
  endfacet
  facet normal 0.0465619 -0.998915 0
    outer loop
      vertex 0.248295 -22.3954 0.95
      vertex 0.0828991 -22.4031 -2.7
      vertex 0.248295 -22.3954 -2.7
    endloop
  endfacet
  facet normal -0.0465734 0.998915 -5.21994e-07
    outer loop
      vertex -0.0828991 -19.2378 -2.7
      vertex -0.248295 -19.2455 0.95
      vertex -0.0828991 -19.2378 0.95
    endloop
  endfacet
  facet normal -0.0465619 0.998915 0
    outer loop
      vertex -0.248295 -19.2455 0.95
      vertex -0.0828991 -19.2378 -2.7
      vertex -0.248295 -19.2455 -2.7
    endloop
  endfacet
  facet normal 0.241928 -0.970294 1.94809e-06
    outer loop
      vertex 6.87773 -21.3197 -5.72205e-07
      vertex 6.90821 -21.3121 0.95
      vertex 6.87773 -21.3197 0.95
    endloop
  endfacet
  facet normal 0.241974 -0.970283 4.03251e-07
    outer loop
      vertex 6.90059 -21.314 -5.72205e-07
      vertex 6.90821 -21.3121 0.95
      vertex 6.87773 -21.3197 -5.72205e-07
    endloop
  endfacet
  facet normal 0.241792 -0.970328 0
    outer loop
      vertex 6.90821 -21.3121 -2.7
      vertex 6.90059 -21.314 -5.72205e-07
      vertex 6.90059 -21.314 -2.7
    endloop
  endfacet
  facet normal 0.241961 -0.970286 5.07034e-07
    outer loop
      vertex 6.90059 -21.314 -5.72205e-07
      vertex 6.90821 -21.3121 -2.7
      vertex 6.90821 -21.3121 0.95
    endloop
  endfacet
  facet normal -0.435921 -0.899985 0
    outer loop
      vertex -1.46243 -22.0683 -2.7
      vertex -1.3283 -22.1333 0.95
      vertex -1.46243 -22.0683 0.95
    endloop
  endfacet
  facet normal -0.435921 -0.899985 -0
    outer loop
      vertex -1.3283 -22.1333 0.95
      vertex -1.46243 -22.0683 -2.7
      vertex -1.3283 -22.1333 -2.7
    endloop
  endfacet
  facet normal -0.187769 -0.982213 0
    outer loop
      vertex -0.734035 -22.3265 -2.7
      vertex -0.574657 -22.357 0.95
      vertex -0.734035 -22.3265 0.95
    endloop
  endfacet
  facet normal -0.187769 -0.982213 -0
    outer loop
      vertex -0.574657 -22.357 0.95
      vertex -0.734035 -22.3265 -2.7
      vertex -0.574657 -22.357 -2.7
    endloop
  endfacet
  facet normal -0.702954 -0.711235 0
    outer loop
      vertex -2.01444 -21.6596 -2.7
      vertex -1.92173 -21.7512 0.95
      vertex -2.01444 -21.6596 0.95
    endloop
  endfacet
  facet normal -0.702961 -0.711228 3.7166e-07
    outer loop
      vertex -1.92173 -21.7512 0.95
      vertex -2.01444 -21.6596 -2.7
      vertex -1.92173 -21.7513 -2.7
    endloop
  endfacet
  facet normal -0.0465619 -0.998915 0
    outer loop
      vertex -0.248295 -22.3954 -2.7
      vertex -0.0828991 -22.4031 0.95
      vertex -0.248295 -22.3954 0.95
    endloop
  endfacet
  facet normal -0.0465619 -0.998915 -0
    outer loop
      vertex -0.0828991 -22.4031 0.95
      vertex -0.248295 -22.3954 -2.7
      vertex -0.0828991 -22.4031 -2.7
    endloop
  endfacet
  facet normal 0.180318 0.983608 -1.97482e-06
    outer loop
      vertex 6.7453 -20.4151 -5.72205e-07
      vertex 6.87773 -20.4394 0.95
      vertex 6.87773 -20.4394 -5.72205e-07
    endloop
  endfacet
  facet normal 0.180314 0.983609 -1.3232e-06
    outer loop
      vertex 6.87773 -20.4394 0.95
      vertex 6.7453 -20.4151 -5.72205e-07
      vertex 0.574657 -19.2839 0.95
    endloop
  endfacet
  facet normal 0.180314 0.983609 0
    outer loop
      vertex 0.574657 -19.2839 -2.7
      vertex 6.7453 -20.4151 -5.72205e-07
      vertex 6.7453 -20.4151 -2.7
    endloop
  endfacet
  facet normal 0.180314 0.983609 0
    outer loop
      vertex 6.7453 -20.4151 -5.72205e-07
      vertex 0.574657 -19.2839 -2.7
      vertex 0.574657 -19.2839 0.95
    endloop
  endfacet
  facet normal -0.998631 -0.0523145 0
    outer loop
      vertex -2.3696 -20.9309 -2.7
      vertex -2.37539 -20.8204 0.95
      vertex -2.37539 -20.8204 -2.7
    endloop
  endfacet
  facet normal -0.998631 -0.0523145 0
    outer loop
      vertex -2.37539 -20.8204 0.95
      vertex -2.3696 -20.9309 -2.7
      vertex -2.3696 -20.9309 0.95
    endloop
  endfacet
  facet normal 0.0932938 -0.995639 -6.76869e-07
    outer loop
      vertex 0.248295 -22.3954 0.95
      vertex 0.301375 -22.3904 -5.72205e-07
      vertex 0.412481 -22.38 0.95
    endloop
  endfacet
  facet normal 0.0933058 -0.995637 0
    outer loop
      vertex 0.248295 -22.3954 -2.7
      vertex 0.301375 -22.3904 -5.72205e-07
      vertex 0.248295 -22.3954 0.95
    endloop
  endfacet
  facet normal 0.0933058 -0.995637 0
    outer loop
      vertex 0.301375 -22.3904 -5.72205e-07
      vertex 0.248295 -22.3954 -2.7
      vertex 0.301375 -22.3904 -2.7
    endloop
  endfacet
  facet normal 0.093288 -0.995639 0
    outer loop
      vertex 0.412481 -22.38 0.95
      vertex 0.301375 -22.3904 -5.72205e-07
      vertex 0.412481 -22.38 -5.72205e-07
    endloop
  endfacet
  facet normal -0.855203 -0.518293 0
    outer loop
      vertex -2.17002 -21.4645 -2.7
      vertex -2.23213 -21.3621 0.95
      vertex -2.23213 -21.3621 -2.7
    endloop
  endfacet
  facet normal -0.855203 -0.518293 0
    outer loop
      vertex -2.23213 -21.3621 0.95
      vertex -2.17002 -21.4645 -2.7
      vertex -2.17002 -21.4645 0.95
    endloop
  endfacet
  facet normal -0.541311 -0.840823 0
    outer loop
      vertex -1.70871 -21.9205 -2.7
      vertex -1.58944 -21.9973 0.95
      vertex -1.70871 -21.9205 0.95
    endloop
  endfacet
  facet normal -0.541311 -0.840823 -0
    outer loop
      vertex -1.58944 -21.9973 0.95
      vertex -1.70871 -21.9205 -2.7
      vertex -1.58944 -21.9973 -2.7
    endloop
  endfacet
  facet normal -0.4882 -0.872732 0
    outer loop
      vertex -1.58944 -21.9973 -2.7
      vertex -1.46243 -22.0683 0.95
      vertex -1.58944 -21.9973 0.95
    endloop
  endfacet
  facet normal -0.4882 -0.872732 -0
    outer loop
      vertex -1.46243 -22.0683 0.95
      vertex -1.58944 -21.9973 -2.7
      vertex -1.46243 -22.0683 -2.7
    endloop
  endfacet
  facet normal -0.755933 -0.654649 0
    outer loop
      vertex -2.01444 -21.6596 -2.7
      vertex -2.09734 -21.5639 0.95
      vertex -2.09734 -21.5639 -2.7
    endloop
  endfacet
  facet normal -0.755933 -0.654649 0
    outer loop
      vertex -2.09734 -21.5639 0.95
      vertex -2.01444 -21.6596 -2.7
      vertex -2.01444 -21.6596 0.95
    endloop
  endfacet
  facet normal -0.898919 -0.438116 0
    outer loop
      vertex -2.23213 -21.3621 -2.7
      vertex -2.28337 -21.2569 0.95
      vertex -2.28337 -21.2569 -2.7
    endloop
  endfacet
  facet normal -0.898919 -0.438116 0
    outer loop
      vertex -2.28337 -21.2569 0.95
      vertex -2.23213 -21.3621 -2.7
      vertex -2.23213 -21.3621 0.95
    endloop
  endfacet
  facet normal -0.334109 -0.942534 0
    outer loop
      vertex -1.18769 -22.1919 -2.7
      vertex -1.0413 -22.2438 0.95
      vertex -1.18769 -22.1919 0.95
    endloop
  endfacet
  facet normal -0.334109 -0.942534 -0
    outer loop
      vertex -1.0413 -22.2438 0.95
      vertex -1.18769 -22.1919 -2.7
      vertex -1.0413 -22.2438 -2.7
    endloop
  endfacet
  facet normal -0.235799 -0.971802 0
    outer loop
      vertex -0.889835 -22.2887 -2.7
      vertex -0.734035 -22.3265 0.95
      vertex -0.889835 -22.2887 0.95
    endloop
  endfacet
  facet normal -0.235799 -0.971802 -0
    outer loop
      vertex -0.734035 -22.3265 0.95
      vertex -0.889835 -22.2887 -2.7
      vertex -0.734035 -22.3265 -2.7
    endloop
  endfacet
  facet normal -0.384542 -0.923107 0
    outer loop
      vertex -1.3283 -22.1333 -2.7
      vertex -1.18769 -22.1919 0.95
      vertex -1.3283 -22.1333 0.95
    endloop
  endfacet
  facet normal -0.384542 -0.923107 -0
    outer loop
      vertex -1.18769 -22.1919 0.95
      vertex -1.3283 -22.1333 -2.7
      vertex -1.18769 -22.1919 -2.7
    endloop
  endfacet
  facet normal 0 -1 0
    outer loop
      vertex -0.0828991 -22.4031 -2.7
      vertex 0.0828991 -22.4031 0.95
      vertex -0.0828991 -22.4031 0.95
    endloop
  endfacet
  facet normal 0 -1 -0
    outer loop
      vertex 0.0828991 -22.4031 0.95
      vertex -0.0828991 -22.4031 -2.7
      vertex 0.0828991 -22.4031 -2.7
    endloop
  endfacet
  facet normal 0 1 -5.22561e-07
    outer loop
      vertex 0.0828991 -19.2378 -2.7
      vertex -0.0828991 -19.2378 0.95
      vertex 0.0828991 -19.2378 0.95
    endloop
  endfacet
  facet normal 0 1 -5.22561e-07
    outer loop
      vertex -0.0828991 -19.2378 0.95
      vertex 0.0828991 -19.2378 -2.7
      vertex -0.0828991 -19.2378 -2.7
    endloop
  endfacet
  facet normal 0.0932823 0.99564 -5.20283e-07
    outer loop
      vertex 0.412481 -19.2609 -2.7
      vertex 0.248295 -19.2455 0.95
      vertex 0.412481 -19.2609 0.95
    endloop
  endfacet
  facet normal 0.0932938 0.995639 0
    outer loop
      vertex 0.248295 -19.2455 0.95
      vertex 0.412481 -19.2609 -2.7
      vertex 0.248295 -19.2455 -2.7
    endloop
  endfacet
  facet normal -0.384553 0.923103 -4.82378e-07
    outer loop
      vertex -1.18769 -19.449 -2.7
      vertex -1.3283 -19.5076 0.95
      vertex -1.18769 -19.449 0.95
    endloop
  endfacet
  facet normal -0.384542 0.923107 0
    outer loop
      vertex -1.3283 -19.5076 0.95
      vertex -1.18769 -19.449 -2.7
      vertex -1.3283 -19.5076 -2.7
    endloop
  endfacet
  facet normal -0.48821 0.872726 -4.56053e-07
    outer loop
      vertex -1.46243 -19.5726 -2.7
      vertex -1.58944 -19.6436 0.95
      vertex -1.46243 -19.5725 0.95
    endloop
  endfacet
  facet normal -0.4882 0.872732 0
    outer loop
      vertex -1.58944 -19.6436 0.95
      vertex -1.46243 -19.5726 -2.7
      vertex -1.58944 -19.6436 -2.7
    endloop
  endfacet
  facet normal -0.898919 0.438116 0
    outer loop
      vertex -2.28337 -20.3839 -2.7
      vertex -2.23213 -20.2788 0.95
      vertex -2.23213 -20.2788 -2.7
    endloop
  endfacet
  facet normal -0.898919 0.438116 0
    outer loop
      vertex -2.23213 -20.2788 0.95
      vertex -2.28337 -20.3839 -2.7
      vertex -2.28337 -20.3839 0.95
    endloop
  endfacet
  facet normal -0.93664 0.350293 0
    outer loop
      vertex -2.28337 -20.3839 -2.7
      vertex -2.32348 -20.4912 0.95
      vertex -2.28337 -20.3839 0.95
    endloop
  endfacet
  facet normal -0.936642 0.350287 -1.83047e-07
    outer loop
      vertex -2.32348 -20.4912 0.95
      vertex -2.28337 -20.3839 -2.7
      vertex -2.32348 -20.4912 -2.7
    endloop
  endfacet
  facet normal -0.807072 0.590452 -3.08548e-07
    outer loop
      vertex -2.09734 -20.077 -2.7
      vertex -2.17002 -20.1763 0.95
      vertex -2.09734 -20.077 0.95
    endloop
  endfacet
  facet normal -0.807072 0.590452 -3.08548e-07
    outer loop
      vertex -2.17002 -20.1763 0.95
      vertex -2.09734 -20.077 -2.7
      vertex -2.17002 -20.1763 -2.7
    endloop
  endfacet
  facet normal -0.966755 -0.255706 1.33622e-07
    outer loop
      vertex -2.32348 -21.1497 -2.7
      vertex -2.35227 -21.0408 0.95
      vertex -2.35227 -21.0408 -2.7
    endloop
  endfacet
  facet normal -0.966756 -0.255702 0
    outer loop
      vertex -2.35227 -21.0408 0.95
      vertex -2.32348 -21.1497 -2.7
      vertex -2.32348 -21.1497 0.95
    endloop
  endfacet
  facet normal 0.374613 -0.927181 7.66206e-07
    outer loop
      vertex 6.93808 -21.3024 0.95
      vertex 6.94536 -21.2994 -5.72205e-07
      vertex 6.9672 -21.2906 0.95
    endloop
  endfacet
  facet normal 0.374527 -0.927216 0
    outer loop
      vertex 6.93808 -21.3024 -2.7
      vertex 6.94536 -21.2994 -5.72205e-07
      vertex 6.93808 -21.3024 0.95
    endloop
  endfacet
  facet normal 0.374527 -0.927216 0
    outer loop
      vertex 6.94536 -21.2994 -5.72205e-07
      vertex 6.93808 -21.3024 -2.7
      vertex 6.94536 -21.2994 -2.7
    endloop
  endfacet
  facet normal 0.374642 -0.92717 0
    outer loop
      vertex 6.9672 -21.2906 0.95
      vertex 6.94536 -21.2994 -5.72205e-07
      vertex 6.9672 -21.2906 -5.72205e-07
    endloop
  endfacet
  facet normal -0.649101 -0.760703 3.97514e-07
    outer loop
      vertex -1.92173 -21.7513 -2.7
      vertex -1.81965 -21.8384 0.95
      vertex -1.92173 -21.7512 0.95
    endloop
  endfacet
  facet normal -0.649101 -0.760703 3.97514e-07
    outer loop
      vertex -1.81965 -21.8384 0.95
      vertex -1.92173 -21.7513 -2.7
      vertex -1.81965 -21.8384 -2.7
    endloop
  endfacet
  facet normal -0.595065 -0.803677 4.19971e-07
    outer loop
      vertex -1.81965 -21.8384 -2.7
      vertex -1.70871 -21.9205 0.95
      vertex -1.81965 -21.8384 0.95
    endloop
  endfacet
  facet normal -0.595056 -0.803684 -0
    outer loop
      vertex -1.70871 -21.9205 0.95
      vertex -1.81965 -21.8384 -2.7
      vertex -1.70871 -21.9205 -2.7
    endloop
  endfacet
  facet normal -0.807072 -0.590452 0
    outer loop
      vertex -2.09734 -21.5639 -2.7
      vertex -2.17002 -21.4645 0.95
      vertex -2.17002 -21.4645 -2.7
    endloop
  endfacet
  facet normal -0.807072 -0.590452 0
    outer loop
      vertex -2.17002 -21.4645 0.95
      vertex -2.09734 -21.5639 -2.7
      vertex -2.09734 -21.5639 0.95
    endloop
  endfacet
  facet normal -0.284551 -0.958661 0
    outer loop
      vertex -1.0413 -22.2438 -2.7
      vertex -0.889835 -22.2887 0.95
      vertex -1.0413 -22.2438 0.95
    endloop
  endfacet
  facet normal -0.284551 -0.958661 -0
    outer loop
      vertex -0.889835 -22.2887 0.95
      vertex -1.0413 -22.2438 -2.7
      vertex -0.889835 -22.2887 -2.7
    endloop
  endfacet
  facet normal -0.0932938 -0.995639 0
    outer loop
      vertex -0.412481 -22.38 -2.7
      vertex -0.248295 -22.3954 0.95
      vertex -0.412481 -22.38 0.95
    endloop
  endfacet
  facet normal -0.0932938 -0.995639 -0
    outer loop
      vertex -0.248295 -22.3954 0.95
      vertex -0.412481 -22.38 -2.7
      vertex -0.248295 -22.3954 -2.7
    endloop
  endfacet
  facet normal -0.140295 -0.99011 0
    outer loop
      vertex -0.574657 -22.357 -2.7
      vertex -0.412481 -22.38 0.95
      vertex -0.574657 -22.357 0.95
    endloop
  endfacet
  facet normal -0.140295 -0.99011 -0
    outer loop
      vertex -0.412481 -22.38 0.95
      vertex -0.574657 -22.357 -2.7
      vertex -0.412481 -22.38 -2.7
    endloop
  endfacet
  facet normal 0.0465734 0.998915 -0
    outer loop
      vertex 0.248295 -19.2455 -2.7
      vertex 0.0828991 -19.2378 0.95
      vertex 0.248295 -19.2455 0.95
    endloop
  endfacet
  facet normal 0.0465619 0.998915 -5.21995e-07
    outer loop
      vertex 0.0828991 -19.2378 0.95
      vertex 0.248295 -19.2455 -2.7
      vertex 0.0828991 -19.2378 -2.7
    endloop
  endfacet
  facet normal 0.140306 0.990108 -0
    outer loop
      vertex 0.574657 -19.2839 -2.7
      vertex 0.412481 -19.2609 0.95
      vertex 0.574657 -19.2839 0.95
    endloop
  endfacet
  facet normal 0.140295 0.99011 -5.17393e-07
    outer loop
      vertex 0.412481 -19.2609 0.95
      vertex 0.574657 -19.2839 -2.7
      vertex 0.412481 -19.2609 -2.7
    endloop
  endfacet
  facet normal -0.649101 0.760703 0
    outer loop
      vertex -1.81965 -19.8025 -2.7
      vertex -1.92173 -19.8896 0.95
      vertex -1.81965 -19.8025 0.95
    endloop
  endfacet
  facet normal -0.649101 0.760703 0
    outer loop
      vertex -1.92173 -19.8896 0.95
      vertex -1.81965 -19.8025 -2.7
      vertex -1.92173 -19.8896 -2.7
    endloop
  endfacet
  facet normal -0.541311 0.840823 0
    outer loop
      vertex -1.58944 -19.6436 -2.7
      vertex -1.70871 -19.7204 0.95
      vertex -1.58944 -19.6436 0.95
    endloop
  endfacet
  facet normal -0.541311 0.840823 0
    outer loop
      vertex -1.70871 -19.7204 0.95
      vertex -1.58944 -19.6436 -2.7
      vertex -1.70871 -19.7204 -2.7
    endloop
  endfacet
  facet normal -0.435911 0.89999 0
    outer loop
      vertex -1.3283 -19.5076 -2.7
      vertex -1.46243 -19.5725 0.95
      vertex -1.3283 -19.5076 0.95
    endloop
  endfacet
  facet normal -0.435921 0.899985 -4.70297e-07
    outer loop
      vertex -1.46243 -19.5725 0.95
      vertex -1.3283 -19.5076 -2.7
      vertex -1.46243 -19.5726 -2.7
    endloop
  endfacet
  facet normal -0.23581 0.971799 -5.07825e-07
    outer loop
      vertex -0.734035 -19.3144 -2.7
      vertex -0.889835 -19.3522 0.95
      vertex -0.734035 -19.3144 0.95
    endloop
  endfacet
  facet normal -0.235799 0.971802 0
    outer loop
      vertex -0.889835 -19.3522 0.95
      vertex -0.734035 -19.3144 -2.7
      vertex -0.889835 -19.3522 -2.7
    endloop
  endfacet
  facet normal -0.334098 0.942538 0
    outer loop
      vertex -1.0413 -19.3971 -2.7
      vertex -1.18769 -19.449 0.95
      vertex -1.0413 -19.3971 0.95
    endloop
  endfacet
  facet normal -0.334109 0.942534 -4.92532e-07
    outer loop
      vertex -1.18769 -19.449 0.95
      vertex -1.0413 -19.3971 -2.7
      vertex -1.18769 -19.449 -2.7
    endloop
  endfacet
  facet normal -0.284551 0.958661 0
    outer loop
      vertex -0.889835 -19.3522 -2.7
      vertex -1.0413 -19.3971 0.95
      vertex -0.889835 -19.3522 0.95
    endloop
  endfacet
  facet normal -0.284551 0.958661 0
    outer loop
      vertex -1.0413 -19.3971 0.95
      vertex -0.889835 -19.3522 -2.7
      vertex -1.0413 -19.3971 -2.7
    endloop
  endfacet
  facet normal -0.140306 0.990108 -5.17392e-07
    outer loop
      vertex -0.412481 -19.2609 -2.7
      vertex -0.574657 -19.2839 0.95
      vertex -0.412481 -19.2609 0.95
    endloop
  endfacet
  facet normal -0.140295 0.99011 0
    outer loop
      vertex -0.574657 -19.2839 0.95
      vertex -0.412481 -19.2609 -2.7
      vertex -0.574657 -19.2839 -2.7
    endloop
  endfacet
  facet normal -0.187758 0.982215 0
    outer loop
      vertex -0.574657 -19.2839 -2.7
      vertex -0.734035 -19.3144 0.95
      vertex -0.574657 -19.2839 0.95
    endloop
  endfacet
  facet normal -0.187769 0.982213 -5.13267e-07
    outer loop
      vertex -0.734035 -19.3144 0.95
      vertex -0.574657 -19.2839 -2.7
      vertex -0.734035 -19.3144 -2.7
    endloop
  endfacet
  facet normal -0.0932823 0.99564 0
    outer loop
      vertex -0.248295 -19.2455 -2.7
      vertex -0.412481 -19.2609 0.95
      vertex -0.248295 -19.2455 0.95
    endloop
  endfacet
  facet normal -0.0932938 0.995639 -5.20282e-07
    outer loop
      vertex -0.412481 -19.2609 0.95
      vertex -0.248295 -19.2455 -2.7
      vertex -0.412481 -19.2609 -2.7
    endloop
  endfacet
  facet normal -0.755927 0.654656 0
    outer loop
      vertex -2.01444 -19.9813 -2.7
      vertex -2.09734 -20.077 0.95
      vertex -2.01444 -19.9813 0.95
    endloop
  endfacet
  facet normal -0.755933 0.654649 -3.42094e-07
    outer loop
      vertex -2.09734 -20.077 0.95
      vertex -2.01444 -19.9813 -2.7
      vertex -2.09734 -20.077 -2.7
    endloop
  endfacet
  facet normal -0.966755 0.255706 -1.33622e-07
    outer loop
      vertex -2.35227 -20.6 -2.7
      vertex -2.32348 -20.4912 0.95
      vertex -2.32348 -20.4912 -2.7
    endloop
  endfacet
  facet normal -0.966756 0.255702 0
    outer loop
      vertex -2.32348 -20.4912 0.95
      vertex -2.35227 -20.6 -2.7
      vertex -2.35227 -20.6 0.95
    endloop
  endfacet
  facet normal -0.998631 0.0523145 0
    outer loop
      vertex -2.37539 -20.8204 -2.7
      vertex -2.3696 -20.71 0.95
      vertex -2.3696 -20.71 -2.7
    endloop
  endfacet
  facet normal -0.998631 0.0523145 0
    outer loop
      vertex -2.3696 -20.71 0.95
      vertex -2.37539 -20.8204 -2.7
      vertex -2.37539 -20.8204 0.95
    endloop
  endfacet
  facet normal -0.9878 0.155727 0
    outer loop
      vertex -2.3696 -20.71 -2.7
      vertex -2.35227 -20.6 0.95
      vertex -2.35227 -20.6 -2.7
    endloop
  endfacet
  facet normal -0.9878 0.155727 0
    outer loop
      vertex -2.35227 -20.6 0.95
      vertex -2.3696 -20.71 -2.7
      vertex -2.3696 -20.71 0.95
    endloop
  endfacet
  facet normal -0.9878 -0.155729 0
    outer loop
      vertex -2.3696 -20.9309 -2.7
      vertex -2.35227 -21.0408 0.95
      vertex -2.3696 -20.9309 0.95
    endloop
  endfacet
  facet normal -0.9878 -0.155727 8.13768e-08
    outer loop
      vertex -2.35227 -21.0408 0.95
      vertex -2.3696 -20.9309 -2.7
      vertex -2.35227 -21.0408 -2.7
    endloop
  endfacet
  facet normal 0.308977 -0.95107 1.36669e-06
    outer loop
      vertex 6.90821 -21.3121 0.95
      vertex 6.91567 -21.3097 -5.72205e-07
      vertex 6.93808 -21.3024 0.95
    endloop
  endfacet
  facet normal 0.308877 -0.951102 4.97009e-07
    outer loop
      vertex 6.90821 -21.3121 -2.7
      vertex 6.91567 -21.3097 -5.72205e-07
      vertex 6.90821 -21.3121 0.95
    endloop
  endfacet
  facet normal 0.309039 -0.951049 0
    outer loop
      vertex 6.91567 -21.3097 -5.72205e-07
      vertex 6.90821 -21.3121 -2.7
      vertex 6.91567 -21.3097 -2.7
    endloop
  endfacet
  facet normal 0.309039 -0.951049 -2.62187e-07
    outer loop
      vertex 6.9306 -21.3048 -5.72205e-07
      vertex 6.93808 -21.3024 0.95
      vertex 6.91567 -21.3097 -5.72205e-07
    endloop
  endfacet
  facet normal 0.309009 -0.951059 0
    outer loop
      vertex 6.93808 -21.3024 -2.7
      vertex 6.9306 -21.3048 -5.72205e-07
      vertex 6.9306 -21.3048 -2.7
    endloop
  endfacet
  facet normal 0.309009 -0.951059 0
    outer loop
      vertex 6.9306 -21.3048 -5.72205e-07
      vertex 6.93808 -21.3024 -2.7
      vertex 6.93808 -21.3024 0.95
    endloop
  endfacet
  facet normal -0.595056 0.803684 0
    outer loop
      vertex -1.70871 -19.7204 -2.7
      vertex -1.81965 -19.8025 0.95
      vertex -1.70871 -19.7204 0.95
    endloop
  endfacet
  facet normal -0.595056 0.803684 0
    outer loop
      vertex -1.81965 -19.8025 0.95
      vertex -1.70871 -19.7204 -2.7
      vertex -1.81965 -19.8025 -2.7
    endloop
  endfacet
  facet normal -0.855203 0.518293 -2.7084e-07
    outer loop
      vertex -2.23213 -20.2788 -2.7
      vertex -2.17002 -20.1763 0.95
      vertex -2.17002 -20.1763 -2.7
    endloop
  endfacet
  facet normal -0.855207 0.518286 0
    outer loop
      vertex -2.17002 -20.1763 0.95
      vertex -2.23213 -20.2788 -2.7
      vertex -2.23213 -20.2788 0.95
    endloop
  endfacet
  facet normal -0.702961 0.711228 0
    outer loop
      vertex -1.92173 -19.8896 -2.7
      vertex -2.01444 -19.9813 0.95
      vertex -1.92173 -19.8896 0.95
    endloop
  endfacet
  facet normal -0.702961 0.711228 0
    outer loop
      vertex -2.01444 -19.9813 0.95
      vertex -1.92173 -19.8896 -2.7
      vertex -2.01444 -19.9813 -2.7
    endloop
  endfacet
  facet normal 0.173673 -0.984803 0
    outer loop
      vertex 6.8468 -21.3251 -5.72205e-07
      vertex 6.87773 -21.3197 0.95
      vertex 6.8468 -21.3251 0.95
    endloop
  endfacet
  facet normal 0.173614 -0.984814 1.97724e-06
    outer loop
      vertex 6.87773 -21.3197 0.95
      vertex 6.8468 -21.3251 -5.72205e-07
      vertex 6.87773 -21.3197 -5.72205e-07
    endloop
  endfacet
  facet normal 0.809003 -0.587805 0
    outer loop
      vertex 7.13877 -21.1566 0.95
      vertex 7.15724 -21.1312 -5.72205e-07
      vertex 7.15724 -21.1312 0.95
    endloop
  endfacet
  facet normal 0.809003 -0.587805 0
    outer loop
      vertex 7.15724 -21.1312 -5.72205e-07
      vertex 7.13877 -21.1566 0.95
      vertex 7.13877 -21.1566 -5.72205e-07
    endloop
  endfacet
  facet normal 0.162331 -0.986736 0
    outer loop
      vertex 0.574657 -22.357 -5.72205e-07
      vertex 6.8468 -21.3251 0.95
      vertex 0.574657 -22.357 0.95
    endloop
  endfacet
  facet normal 0.162331 -0.986736 0
    outer loop
      vertex 6.8468 -21.3251 0.95
      vertex 0.574657 -22.357 -5.72205e-07
      vertex 6.8468 -21.3251 -5.72205e-07
    endloop
  endfacet
  facet normal 0.241928 0.970294 -1.94809e-06
    outer loop
      vertex 6.90821 -20.447 -5.72205e-07
      vertex 6.87773 -20.4394 0.95
      vertex 6.90821 -20.447 0.95
    endloop
  endfacet
  facet normal 0.241928 0.970294 -1.94809e-06
    outer loop
      vertex 6.87773 -20.4394 0.95
      vertex 6.90821 -20.447 -5.72205e-07
      vertex 6.87773 -20.4394 -5.72205e-07
    endloop
  endfacet
  facet normal 1 -0 0
    outer loop
      vertex 7.23389 -20.8952 0.95
      vertex 7.23389 -20.8638 -5.72205e-07
      vertex 7.23389 -20.8638 0.95
    endloop
  endfacet
  facet normal 1 0 0
    outer loop
      vertex 7.23389 -20.8638 -5.72205e-07
      vertex 7.23389 -20.8952 0.95
      vertex 7.23389 -20.8952 -5.72205e-07
    endloop
  endfacet
  facet normal 0.766052 -0.642779 0
    outer loop
      vertex 7.11858 -21.1806 0.95
      vertex 7.13877 -21.1566 -5.72205e-07
      vertex 7.13877 -21.1566 0.95
    endloop
  endfacet
  facet normal 0.766077 -0.642749 1.29047e-06
    outer loop
      vertex 7.13877 -21.1566 -5.72205e-07
      vertex 7.11858 -21.1806 0.95
      vertex 7.11858 -21.1806 -5.72205e-07
    endloop
  endfacet
  facet normal 0.140295 -0.99011 0
    outer loop
      vertex 0.412481 -22.38 -5.72205e-07
      vertex 0.574657 -22.357 0.95
      vertex 0.412481 -22.38 0.95
    endloop
  endfacet
  facet normal 0.140295 -0.99011 0
    outer loop
      vertex 0.574657 -22.357 0.95
      vertex 0.412481 -22.38 -5.72205e-07
      vertex 0.574657 -22.357 -5.72205e-07
    endloop
  endfacet
  facet normal 0.961265 0.275627 -5.53386e-07
    outer loop
      vertex 7.2208 -20.7707 0.95
      vertex 7.21214 -20.7405 -5.72205e-07
      vertex 7.21214 -20.7405 0.95
    endloop
  endfacet
  facet normal 0.96126 0.275643 0
    outer loop
      vertex 7.21214 -20.7405 -5.72205e-07
      vertex 7.2208 -20.7707 0.95
      vertex 7.2208 -20.7707 -5.72205e-07
    endloop
  endfacet
  facet normal 0.809003 0.587805 0
    outer loop
      vertex 7.15724 -20.6279 0.95
      vertex 7.13877 -20.6025 -5.72205e-07
      vertex 7.13877 -20.6025 0.95
    endloop
  endfacet
  facet normal 0.809024 0.587776 -1.1801e-06
    outer loop
      vertex 7.13877 -20.6025 -5.72205e-07
      vertex 7.15724 -20.6279 0.95
      vertex 7.15724 -20.6279 -5.72205e-07
    endloop
  endfacet
  facet normal 0.669126 0.743149 -0
    outer loop
      vertex 7.09676 -20.5558 -5.72205e-07
      vertex 7.07342 -20.5348 0.95
      vertex 7.09676 -20.5558 0.95
    endloop
  endfacet
  facet normal 0.669126 0.743149 0
    outer loop
      vertex 7.07342 -20.5348 0.95
      vertex 7.09676 -20.5558 -5.72205e-07
      vertex 7.07342 -20.5348 -5.72205e-07
    endloop
  endfacet
  facet normal 0 0 1
    outer loop
      vertex 7.2317 -20.8325 0.95
      vertex 7.23389 -20.8952 0.95
      vertex 7.23389 -20.8638 0.95
    endloop
  endfacet
  facet normal 0 0 1
    outer loop
      vertex 7.2317 -20.8325 0.95
      vertex 7.2317 -20.9266 0.95
      vertex 7.23389 -20.8952 0.95
    endloop
  endfacet
  facet normal 0 0 1
    outer loop
      vertex 7.22733 -20.8014 0.95
      vertex 7.2317 -20.9266 0.95
      vertex 7.2317 -20.8325 0.95
    endloop
  endfacet
  facet normal 0 0 1
    outer loop
      vertex 7.22733 -20.8014 0.95
      vertex 7.22733 -20.9577 0.95
      vertex 7.2317 -20.9266 0.95
    endloop
  endfacet
  facet normal 0 0 1
    outer loop
      vertex 7.2208 -20.7707 0.95
      vertex 7.22733 -20.9577 0.95
      vertex 7.22733 -20.8014 0.95
    endloop
  endfacet
  facet normal 0 0 1
    outer loop
      vertex 7.2208 -20.7707 0.95
      vertex 7.2208 -20.9884 0.95
      vertex 7.22733 -20.9577 0.95
    endloop
  endfacet
  facet normal 0 0 1
    outer loop
      vertex 7.21214 -20.7405 0.95
      vertex 7.2208 -20.9884 0.95
      vertex 7.2208 -20.7707 0.95
    endloop
  endfacet
  facet normal 0 0 1
    outer loop
      vertex 7.21214 -20.7405 0.95
      vertex 7.21214 -21.0186 0.95
      vertex 7.2208 -20.9884 0.95
    endloop
  endfacet
  facet normal 0 0 1
    outer loop
      vertex 7.2014 -20.711 0.95
      vertex 7.21214 -21.0186 0.95
      vertex 7.21214 -20.7405 0.95
    endloop
  endfacet
  facet normal 0 0 1
    outer loop
      vertex 7.2014 -20.711 0.95
      vertex 7.2014 -21.0481 0.95
      vertex 7.21214 -21.0186 0.95
    endloop
  endfacet
  facet normal 0 0 1
    outer loop
      vertex 7.18863 -20.6823 0.95
      vertex 7.2014 -21.0481 0.95
      vertex 7.2014 -20.711 0.95
    endloop
  endfacet
  facet normal 0 0 1
    outer loop
      vertex 7.18863 -20.6823 0.95
      vertex 7.18863 -21.0768 0.95
      vertex 7.2014 -21.0481 0.95
    endloop
  endfacet
  facet normal 0 0 1
    outer loop
      vertex 7.17388 -20.6545 0.95
      vertex 7.18863 -21.0768 0.95
      vertex 7.18863 -20.6823 0.95
    endloop
  endfacet
  facet normal 0 0 1
    outer loop
      vertex 7.17388 -20.6545 0.95
      vertex 7.17388 -21.1045 0.95
      vertex 7.18863 -21.0768 0.95
    endloop
  endfacet
  facet normal 0 0 1
    outer loop
      vertex 7.15724 -20.6279 0.95
      vertex 7.17388 -21.1045 0.95
      vertex 7.17388 -20.6545 0.95
    endloop
  endfacet
  facet normal 0 0 1
    outer loop
      vertex 7.15724 -20.6279 0.95
      vertex 7.15724 -21.1312 0.95
      vertex 7.17388 -21.1045 0.95
    endloop
  endfacet
  facet normal 0 0 1
    outer loop
      vertex 7.13877 -20.6025 0.95
      vertex 7.15724 -21.1312 0.95
      vertex 7.15724 -20.6279 0.95
    endloop
  endfacet
  facet normal 0 0 1
    outer loop
      vertex 7.13877 -20.6025 0.95
      vertex 7.13877 -21.1566 0.95
      vertex 7.15724 -21.1312 0.95
    endloop
  endfacet
  facet normal 0 0 1
    outer loop
      vertex 7.11858 -20.5784 0.95
      vertex 7.13877 -21.1566 0.95
      vertex 7.13877 -20.6025 0.95
    endloop
  endfacet
  facet normal 0 0 1
    outer loop
      vertex 7.11858 -20.5784 0.95
      vertex 7.11858 -21.1806 0.95
      vertex 7.13877 -21.1566 0.95
    endloop
  endfacet
  facet normal 0 0 1
    outer loop
      vertex 7.09676 -20.5558 0.95
      vertex 7.11858 -21.1806 0.95
      vertex 7.11858 -20.5784 0.95
    endloop
  endfacet
  facet normal 0 0 1
    outer loop
      vertex 7.09676 -20.5558 0.95
      vertex 7.09676 -21.2032 0.95
      vertex 7.11858 -21.1806 0.95
    endloop
  endfacet
  facet normal 0 0 1
    outer loop
      vertex 7.07342 -20.5348 0.95
      vertex 7.09676 -21.2032 0.95
      vertex 7.09676 -20.5558 0.95
    endloop
  endfacet
  facet normal 0 0 1
    outer loop
      vertex 7.07342 -20.5348 0.95
      vertex 7.07342 -21.2242 0.95
      vertex 7.09676 -21.2032 0.95
    endloop
  endfacet
  facet normal 0 0 1
    outer loop
      vertex 7.04867 -20.5155 0.95
      vertex 7.07342 -21.2242 0.95
      vertex 7.07342 -20.5348 0.95
    endloop
  endfacet
  facet normal 0 0 1
    outer loop
      vertex 7.04867 -20.5155 0.95
      vertex 7.04867 -21.2436 0.95
      vertex 7.07342 -21.2242 0.95
    endloop
  endfacet
  facet normal 0 0 1
    outer loop
      vertex 7.02263 -20.4979 0.95
      vertex 7.04867 -21.2436 0.95
      vertex 7.04867 -20.5155 0.95
    endloop
  endfacet
  facet normal 0 0 1
    outer loop
      vertex 7.02263 -20.4979 0.95
      vertex 7.02263 -21.2611 0.95
      vertex 7.04867 -21.2436 0.95
    endloop
  endfacet
  facet normal 0 0 1
    outer loop
      vertex 6.99543 -20.4822 0.95
      vertex 7.02263 -21.2611 0.95
      vertex 7.02263 -20.4979 0.95
    endloop
  endfacet
  facet normal 0 0 1
    outer loop
      vertex 6.99543 -20.4822 0.95
      vertex 6.99543 -21.2768 0.95
      vertex 7.02263 -21.2611 0.95
    endloop
  endfacet
  facet normal 0 0 1
    outer loop
      vertex 6.9672 -20.4684 0.95
      vertex 6.99543 -21.2768 0.95
      vertex 6.99543 -20.4822 0.95
    endloop
  endfacet
  facet normal 0 0 1
    outer loop
      vertex 6.9672 -20.4684 0.95
      vertex 6.9672 -21.2906 0.95
      vertex 6.99543 -21.2768 0.95
    endloop
  endfacet
  facet normal 0 0 1
    outer loop
      vertex 6.93808 -20.4567 0.95
      vertex 6.9672 -21.2906 0.95
      vertex 6.9672 -20.4684 0.95
    endloop
  endfacet
  facet normal 0 0 1
    outer loop
      vertex 6.93808 -20.4567 0.95
      vertex 6.93808 -21.3024 0.95
      vertex 6.9672 -21.2906 0.95
    endloop
  endfacet
  facet normal 0 0 1
    outer loop
      vertex 6.90821 -20.447 0.95
      vertex 6.93808 -21.3024 0.95
      vertex 6.93808 -20.4567 0.95
    endloop
  endfacet
  facet normal 0 0 1
    outer loop
      vertex 6.90821 -20.447 0.95
      vertex 6.90821 -21.3121 0.95
      vertex 6.93808 -21.3024 0.95
    endloop
  endfacet
  facet normal 0 0 1
    outer loop
      vertex 6.87773 -20.4394 0.95
      vertex 6.90821 -21.3121 0.95
      vertex 6.90821 -20.447 0.95
    endloop
  endfacet
  facet normal 0 0 1
    outer loop
      vertex 6.87773 -20.4394 0.95
      vertex 6.87773 -21.3197 0.95
      vertex 6.90821 -21.3121 0.95
    endloop
  endfacet
  facet normal 0 0 1
    outer loop
      vertex 6.87773 -20.4394 0.95
      vertex 6.8468 -21.3251 0.95
      vertex 6.87773 -21.3197 0.95
    endloop
  endfacet
  facet normal 0 0 1
    outer loop
      vertex 0.574657 -19.2839 0.95
      vertex 6.8468 -21.3251 0.95
      vertex 6.87773 -20.4394 0.95
    endloop
  endfacet
  facet normal 0 0 1
    outer loop
      vertex 0.574657 -19.2839 0.95
      vertex 0.574657 -22.357 0.95
      vertex 6.8468 -21.3251 0.95
    endloop
  endfacet
  facet normal 0 0 1
    outer loop
      vertex 0.412481 -19.2609 0.95
      vertex 0.574657 -22.357 0.95
      vertex 0.574657 -19.2839 0.95
    endloop
  endfacet
  facet normal 0 0 1
    outer loop
      vertex 0.412481 -19.2609 0.95
      vertex 0.412481 -22.38 0.95
      vertex 0.574657 -22.357 0.95
    endloop
  endfacet
  facet normal 0 0 1
    outer loop
      vertex 0.248295 -19.2455 0.95
      vertex 0.412481 -22.38 0.95
      vertex 0.412481 -19.2609 0.95
    endloop
  endfacet
  facet normal 0 0 1
    outer loop
      vertex 0.248295 -19.2455 0.95
      vertex 0.248295 -22.3954 0.95
      vertex 0.412481 -22.38 0.95
    endloop
  endfacet
  facet normal 0 0 1
    outer loop
      vertex 0.0828991 -19.2378 0.95
      vertex 0.248295 -22.3954 0.95
      vertex 0.248295 -19.2455 0.95
    endloop
  endfacet
  facet normal 0 0 1
    outer loop
      vertex 0.0828991 -19.2378 0.95
      vertex 0.0828991 -22.4031 0.95
      vertex 0.248295 -22.3954 0.95
    endloop
  endfacet
  facet normal -0 0 1
    outer loop
      vertex -0.0828991 -19.2378 0.95
      vertex 0.0828991 -22.4031 0.95
      vertex 0.0828991 -19.2378 0.95
    endloop
  endfacet
  facet normal 0 0 1
    outer loop
      vertex -0.0828991 -19.2378 0.95
      vertex -0.0828991 -22.4031 0.95
      vertex 0.0828991 -22.4031 0.95
    endloop
  endfacet
  facet normal -0 0 1
    outer loop
      vertex -0.248295 -19.2455 0.95
      vertex -0.0828991 -22.4031 0.95
      vertex -0.0828991 -19.2378 0.95
    endloop
  endfacet
  facet normal 0 0 1
    outer loop
      vertex -0.248295 -19.2455 0.95
      vertex -0.248295 -22.3954 0.95
      vertex -0.0828991 -22.4031 0.95
    endloop
  endfacet
  facet normal -0 0 1
    outer loop
      vertex -0.412481 -19.2609 0.95
      vertex -0.248295 -22.3954 0.95
      vertex -0.248295 -19.2455 0.95
    endloop
  endfacet
  facet normal 0 0 1
    outer loop
      vertex -0.412481 -19.2609 0.95
      vertex -0.412481 -22.38 0.95
      vertex -0.248295 -22.3954 0.95
    endloop
  endfacet
  facet normal -0 0 1
    outer loop
      vertex -0.574657 -19.2839 0.95
      vertex -0.412481 -22.38 0.95
      vertex -0.412481 -19.2609 0.95
    endloop
  endfacet
  facet normal 0 0 1
    outer loop
      vertex -0.574657 -19.2839 0.95
      vertex -0.574657 -22.357 0.95
      vertex -0.412481 -22.38 0.95
    endloop
  endfacet
  facet normal -0 0 1
    outer loop
      vertex -0.734035 -19.3144 0.95
      vertex -0.574657 -22.357 0.95
      vertex -0.574657 -19.2839 0.95
    endloop
  endfacet
  facet normal 0 0 1
    outer loop
      vertex -0.734035 -19.3144 0.95
      vertex -0.734035 -22.3265 0.95
      vertex -0.574657 -22.357 0.95
    endloop
  endfacet
  facet normal -0 0 1
    outer loop
      vertex -0.889835 -19.3522 0.95
      vertex -0.734035 -22.3265 0.95
      vertex -0.734035 -19.3144 0.95
    endloop
  endfacet
  facet normal 0 0 1
    outer loop
      vertex -0.889835 -19.3522 0.95
      vertex -0.889835 -22.2887 0.95
      vertex -0.734035 -22.3265 0.95
    endloop
  endfacet
  facet normal -0 0 1
    outer loop
      vertex -1.0413 -19.3971 0.95
      vertex -0.889835 -22.2887 0.95
      vertex -0.889835 -19.3522 0.95
    endloop
  endfacet
  facet normal 0 0 1
    outer loop
      vertex -1.0413 -19.3971 0.95
      vertex -1.0413 -22.2438 0.95
      vertex -0.889835 -22.2887 0.95
    endloop
  endfacet
  facet normal -0 0 1
    outer loop
      vertex -1.18769 -19.449 0.95
      vertex -1.0413 -22.2438 0.95
      vertex -1.0413 -19.3971 0.95
    endloop
  endfacet
  facet normal 0 0 1
    outer loop
      vertex -1.18769 -19.449 0.95
      vertex -1.18769 -22.1919 0.95
      vertex -1.0413 -22.2438 0.95
    endloop
  endfacet
  facet normal -0 0 1
    outer loop
      vertex -1.3283 -19.5076 0.95
      vertex -1.18769 -22.1919 0.95
      vertex -1.18769 -19.449 0.95
    endloop
  endfacet
  facet normal 0 0 1
    outer loop
      vertex -1.3283 -19.5076 0.95
      vertex -1.3283 -22.1333 0.95
      vertex -1.18769 -22.1919 0.95
    endloop
  endfacet
  facet normal -0 0 1
    outer loop
      vertex -1.46243 -19.5725 0.95
      vertex -1.3283 -22.1333 0.95
      vertex -1.3283 -19.5076 0.95
    endloop
  endfacet
  facet normal 0 0 1
    outer loop
      vertex -1.46243 -19.5725 0.95
      vertex -1.46243 -22.0683 0.95
      vertex -1.3283 -22.1333 0.95
    endloop
  endfacet
  facet normal -0 0 1
    outer loop
      vertex -1.58944 -19.6436 0.95
      vertex -1.46243 -22.0683 0.95
      vertex -1.46243 -19.5725 0.95
    endloop
  endfacet
  facet normal 0 0 1
    outer loop
      vertex -1.58944 -19.6436 0.95
      vertex -1.58944 -21.9973 0.95
      vertex -1.46243 -22.0683 0.95
    endloop
  endfacet
  facet normal -0 0 1
    outer loop
      vertex -1.70871 -19.7204 0.95
      vertex -1.58944 -21.9973 0.95
      vertex -1.58944 -19.6436 0.95
    endloop
  endfacet
  facet normal 0 0 1
    outer loop
      vertex -1.70871 -19.7204 0.95
      vertex -1.70871 -21.9205 0.95
      vertex -1.58944 -21.9973 0.95
    endloop
  endfacet
  facet normal -0 0 1
    outer loop
      vertex -1.81965 -19.8025 0.95
      vertex -1.70871 -21.9205 0.95
      vertex -1.70871 -19.7204 0.95
    endloop
  endfacet
  facet normal 0 0 1
    outer loop
      vertex -1.81965 -19.8025 0.95
      vertex -1.81965 -21.8384 0.95
      vertex -1.70871 -21.9205 0.95
    endloop
  endfacet
  facet normal -0 0 1
    outer loop
      vertex -1.92173 -19.8896 0.95
      vertex -1.81965 -21.8384 0.95
      vertex -1.81965 -19.8025 0.95
    endloop
  endfacet
  facet normal 0 0 1
    outer loop
      vertex -1.92173 -19.8896 0.95
      vertex -1.92173 -21.7512 0.95
      vertex -1.81965 -21.8384 0.95
    endloop
  endfacet
  facet normal -0 0 1
    outer loop
      vertex -2.01444 -19.9813 0.95
      vertex -1.92173 -21.7512 0.95
      vertex -1.92173 -19.8896 0.95
    endloop
  endfacet
  facet normal 0 0 1
    outer loop
      vertex -2.01444 -19.9813 0.95
      vertex -2.01444 -21.6596 0.95
      vertex -1.92173 -21.7512 0.95
    endloop
  endfacet
  facet normal -0 0 1
    outer loop
      vertex -2.09734 -20.077 0.95
      vertex -2.01444 -21.6596 0.95
      vertex -2.01444 -19.9813 0.95
    endloop
  endfacet
  facet normal 0 0 1
    outer loop
      vertex -2.09734 -20.077 0.95
      vertex -2.09734 -21.5639 0.95
      vertex -2.01444 -21.6596 0.95
    endloop
  endfacet
  facet normal -0 0 1
    outer loop
      vertex -2.17002 -20.1763 0.95
      vertex -2.09734 -21.5639 0.95
      vertex -2.09734 -20.077 0.95
    endloop
  endfacet
  facet normal 0 0 1
    outer loop
      vertex -2.17002 -20.1763 0.95
      vertex -2.17002 -21.4645 0.95
      vertex -2.09734 -21.5639 0.95
    endloop
  endfacet
  facet normal -0 0 1
    outer loop
      vertex -2.23213 -20.2788 0.95
      vertex -2.17002 -21.4645 0.95
      vertex -2.17002 -20.1763 0.95
    endloop
  endfacet
  facet normal 0 0 1
    outer loop
      vertex -2.23213 -20.2788 0.95
      vertex -2.23213 -21.3621 0.95
      vertex -2.17002 -21.4645 0.95
    endloop
  endfacet
  facet normal -0 0 1
    outer loop
      vertex -2.28337 -20.3839 0.95
      vertex -2.23213 -21.3621 0.95
      vertex -2.23213 -20.2788 0.95
    endloop
  endfacet
  facet normal 0 0 1
    outer loop
      vertex -2.28337 -20.3839 0.95
      vertex -2.28337 -21.2569 0.95
      vertex -2.23213 -21.3621 0.95
    endloop
  endfacet
  facet normal -0 0 1
    outer loop
      vertex -2.32348 -20.4912 0.95
      vertex -2.28337 -21.2569 0.95
      vertex -2.28337 -20.3839 0.95
    endloop
  endfacet
  facet normal 0 0 1
    outer loop
      vertex -2.32348 -20.4912 0.95
      vertex -2.32348 -21.1497 0.95
      vertex -2.28337 -21.2569 0.95
    endloop
  endfacet
  facet normal -0 0 1
    outer loop
      vertex -2.35227 -20.6 0.95
      vertex -2.32348 -21.1497 0.95
      vertex -2.32348 -20.4912 0.95
    endloop
  endfacet
  facet normal 0 0 1
    outer loop
      vertex -2.35227 -20.6 0.95
      vertex -2.35227 -21.0408 0.95
      vertex -2.32348 -21.1497 0.95
    endloop
  endfacet
  facet normal -0 0 1
    outer loop
      vertex -2.3696 -20.71 0.95
      vertex -2.35227 -21.0408 0.95
      vertex -2.35227 -20.6 0.95
    endloop
  endfacet
  facet normal 0 0 1
    outer loop
      vertex -2.3696 -20.71 0.95
      vertex -2.3696 -20.9309 0.95
      vertex -2.35227 -21.0408 0.95
    endloop
  endfacet
  facet normal 0 -0 1
    outer loop
      vertex -2.3696 -20.9309 0.95
      vertex -2.3696 -20.71 0.95
      vertex -2.37539 -20.8204 0.95
    endloop
  endfacet
  facet normal 0.997563 0.0697711 0
    outer loop
      vertex 7.23389 -20.8638 0.95
      vertex 7.2317 -20.8325 -5.72205e-07
      vertex 7.2317 -20.8325 0.95
    endloop
  endfacet
  facet normal 0.997563 0.0697711 0
    outer loop
      vertex 7.2317 -20.8325 -5.72205e-07
      vertex 7.23389 -20.8638 0.95
      vertex 7.23389 -20.8638 -5.72205e-07
    endloop
  endfacet
  facet normal 0.961265 -0.275627 0
    outer loop
      vertex 7.21214 -21.0186 0.95
      vertex 7.2208 -20.9884 -5.72205e-07
      vertex 7.2208 -20.9884 0.95
    endloop
  endfacet
  facet normal 0.961265 -0.275627 0
    outer loop
      vertex 7.2208 -20.9884 -5.72205e-07
      vertex 7.21214 -21.0186 0.95
      vertex 7.21214 -21.0186 -5.72205e-07
    endloop
  endfacet
  facet normal 0.939684 -0.342043 0
    outer loop
      vertex 7.2014 -21.0481 0.95
      vertex 7.21214 -21.0186 -5.72205e-07
      vertex 7.21214 -21.0186 0.95
    endloop
  endfacet
  facet normal 0.939684 -0.342043 0
    outer loop
      vertex 7.21214 -21.0186 -5.72205e-07
      vertex 7.2014 -21.0481 0.95
      vertex 7.2014 -21.0481 -5.72205e-07
    endloop
  endfacet
  facet normal 0.719341 -0.694657 1.39469e-06
    outer loop
      vertex 7.09676 -21.2032 0.95
      vertex 7.11858 -21.1806 -5.72205e-07
      vertex 7.11858 -21.1806 0.95
    endloop
  endfacet
  facet normal 0.719312 -0.694687 0
    outer loop
      vertex 7.11858 -21.1806 -5.72205e-07
      vertex 7.09676 -21.2032 0.95
      vertex 7.09676 -21.2032 -5.72205e-07
    endloop
  endfacet
  facet normal 0.669126 -0.743149 0
    outer loop
      vertex 7.07342 -21.2242 -5.72205e-07
      vertex 7.09676 -21.2032 0.95
      vertex 7.07342 -21.2242 0.95
    endloop
  endfacet
  facet normal 0.669126 -0.743149 0
    outer loop
      vertex 7.09676 -21.2032 0.95
      vertex 7.07342 -21.2242 -5.72205e-07
      vertex 7.09676 -21.2032 -5.72205e-07
    endloop
  endfacet
  facet normal 0.500005 -0.866022 0
    outer loop
      vertex 6.99543 -21.2768 -5.72205e-07
      vertex 7.02263 -21.2611 0.95
      vertex 6.99543 -21.2768 0.95
    endloop
  endfacet
  facet normal 0.500005 -0.866022 0
    outer loop
      vertex 7.02263 -21.2611 0.95
      vertex 6.99543 -21.2768 -5.72205e-07
      vertex 7.02263 -21.2611 -5.72205e-07
    endloop
  endfacet
  facet normal 0.438375 -0.898792 0
    outer loop
      vertex 6.9672 -21.2906 -5.72205e-07
      vertex 6.99543 -21.2768 0.95
      vertex 6.9672 -21.2906 0.95
    endloop
  endfacet
  facet normal 0.438375 -0.898792 0
    outer loop
      vertex 6.99543 -21.2768 0.95
      vertex 6.9672 -21.2906 -5.72205e-07
      vertex 6.99543 -21.2768 -5.72205e-07
    endloop
  endfacet
  facet normal 0.719341 0.694657 0
    outer loop
      vertex 7.11858 -20.5784 0.95
      vertex 7.09676 -20.5558 -5.72205e-07
      vertex 7.09676 -20.5558 0.95
    endloop
  endfacet
  facet normal 0.719341 0.694657 0
    outer loop
      vertex 7.09676 -20.5558 -5.72205e-07
      vertex 7.11858 -20.5784 0.95
      vertex 7.11858 -20.5784 -5.72205e-07
    endloop
  endfacet
  facet normal 0.882949 0.469469 0
    outer loop
      vertex 7.18863 -20.6823 0.95
      vertex 7.17388 -20.6545 -5.72205e-07
      vertex 7.17388 -20.6545 0.95
    endloop
  endfacet
  facet normal 0.882949 0.469469 0
    outer loop
      vertex 7.17388 -20.6545 -5.72205e-07
      vertex 7.18863 -20.6823 0.95
      vertex 7.18863 -20.6823 -5.72205e-07
    endloop
  endfacet
  facet normal 0.766052 0.642779 0
    outer loop
      vertex 7.13877 -20.6025 0.95
      vertex 7.11858 -20.5784 -5.72205e-07
      vertex 7.11858 -20.5784 0.95
    endloop
  endfacet
  facet normal 0.766052 0.642779 0
    outer loop
      vertex 7.11858 -20.5784 -5.72205e-07
      vertex 7.13877 -20.6025 0.95
      vertex 7.13877 -20.6025 -5.72205e-07
    endloop
  endfacet
  facet normal 0.559163 0.829058 -0
    outer loop
      vertex 7.04867 -20.5155 -5.72205e-07
      vertex 7.02263 -20.4979 0.95
      vertex 7.04867 -20.5155 0.95
    endloop
  endfacet
  facet normal 0.559163 0.829058 0
    outer loop
      vertex 7.02263 -20.4979 0.95
      vertex 7.04867 -20.5155 -5.72205e-07
      vertex 7.02263 -20.4979 -5.72205e-07
    endloop
  endfacet
  facet normal 0.500005 0.866022 -0
    outer loop
      vertex 7.02263 -20.4979 -5.72205e-07
      vertex 6.99543 -20.4822 0.95
      vertex 7.02263 -20.4979 0.95
    endloop
  endfacet
  facet normal 0.500005 0.866022 0
    outer loop
      vertex 6.99543 -20.4822 0.95
      vertex 7.02263 -20.4979 -5.72205e-07
      vertex 6.99543 -20.4822 -5.72205e-07
    endloop
  endfacet
  facet normal 0.615686 0.787992 -0
    outer loop
      vertex 7.07342 -20.5348 -5.72205e-07
      vertex 7.04867 -20.5155 0.95
      vertex 7.07342 -20.5348 0.95
    endloop
  endfacet
  facet normal 0.615686 0.787992 0
    outer loop
      vertex 7.04867 -20.5155 0.95
      vertex 7.07342 -20.5348 -5.72205e-07
      vertex 7.04867 -20.5155 -5.72205e-07
    endloop
  endfacet
  facet normal 0.374613 0.927181 -0
    outer loop
      vertex 6.9672 -20.4684 -5.72205e-07
      vertex 6.93808 -20.4567 0.95
      vertex 6.9672 -20.4684 0.95
    endloop
  endfacet
  facet normal 0.374613 0.927181 0
    outer loop
      vertex 6.93808 -20.4567 0.95
      vertex 6.9672 -20.4684 -5.72205e-07
      vertex 6.93808 -20.4567 -5.72205e-07
    endloop
  endfacet
  facet normal 0.438375 0.898792 -0
    outer loop
      vertex 6.99543 -20.4822 -5.72205e-07
      vertex 6.9672 -20.4684 0.95
      vertex 6.99543 -20.4822 0.95
    endloop
  endfacet
  facet normal 0.438375 0.898792 0
    outer loop
      vertex 6.9672 -20.4684 0.95
      vertex 6.99543 -20.4822 -5.72205e-07
      vertex 6.9672 -20.4684 -5.72205e-07
    endloop
  endfacet
  facet normal 0.309032 0.951052 -0
    outer loop
      vertex 6.93808 -20.4567 -5.72205e-07
      vertex 6.90821 -20.447 0.95
      vertex 6.93808 -20.4567 0.95
    endloop
  endfacet
  facet normal 0.308977 0.95107 -1.9095e-06
    outer loop
      vertex 6.90821 -20.447 0.95
      vertex 6.93808 -20.4567 -5.72205e-07
      vertex 6.90821 -20.447 -5.72205e-07
    endloop
  endfacet
  facet normal 0.978152 0.207891 0
    outer loop
      vertex 7.22733 -20.8014 0.95
      vertex 7.2208 -20.7707 -5.72205e-07
      vertex 7.2208 -20.7707 0.95
    endloop
  endfacet
  facet normal 0.978152 0.207891 0
    outer loop
      vertex 7.2208 -20.7707 -5.72205e-07
      vertex 7.22733 -20.8014 0.95
      vertex 7.22733 -20.8014 -5.72205e-07
    endloop
  endfacet
  facet normal 0.990266 0.139185 0
    outer loop
      vertex 7.2317 -20.8325 0.95
      vertex 7.22733 -20.8014 -5.72205e-07
      vertex 7.22733 -20.8014 0.95
    endloop
  endfacet
  facet normal 0.990266 0.139185 0
    outer loop
      vertex 7.22733 -20.8014 -5.72205e-07
      vertex 7.2317 -20.8325 0.95
      vertex 7.2317 -20.8325 -5.72205e-07
    endloop
  endfacet
  facet normal 0.990266 -0.139185 0
    outer loop
      vertex 7.22733 -20.9577 0.95
      vertex 7.2317 -20.9266 -5.72205e-07
      vertex 7.2317 -20.9266 0.95
    endloop
  endfacet
  facet normal 0.990266 -0.139185 0
    outer loop
      vertex 7.2317 -20.9266 -5.72205e-07
      vertex 7.22733 -20.9577 0.95
      vertex 7.22733 -20.9577 -5.72205e-07
    endloop
  endfacet
  facet normal 0.997563 -0.0697711 1.40082e-07
    outer loop
      vertex 7.2317 -20.9266 0.95
      vertex 7.23389 -20.8952 -5.72205e-07
      vertex 7.23389 -20.8952 0.95
    endloop
  endfacet
  facet normal 0.997563 -0.0697753 0
    outer loop
      vertex 7.23389 -20.8952 -5.72205e-07
      vertex 7.2317 -20.9266 0.95
      vertex 7.2317 -20.9266 -5.72205e-07
    endloop
  endfacet
  facet normal 0.84806 -0.529901 0
    outer loop
      vertex 7.15724 -21.1312 0.95
      vertex 7.17388 -21.1045 -5.72205e-07
      vertex 7.17388 -21.1045 0.95
    endloop
  endfacet
  facet normal 0.84806 -0.529901 0
    outer loop
      vertex 7.17388 -21.1045 -5.72205e-07
      vertex 7.15724 -21.1312 0.95
      vertex 7.15724 -21.1312 -5.72205e-07
    endloop
  endfacet
  facet normal 0.913546 -0.406736 0
    outer loop
      vertex 7.18863 -21.0768 0.95
      vertex 7.2014 -21.0481 -5.72205e-07
      vertex 7.2014 -21.0481 0.95
    endloop
  endfacet
  facet normal 0.913546 -0.406736 0
    outer loop
      vertex 7.2014 -21.0481 -5.72205e-07
      vertex 7.18863 -21.0768 0.95
      vertex 7.18863 -21.0768 -5.72205e-07
    endloop
  endfacet
  facet normal 0.978152 -0.207891 0
    outer loop
      vertex 7.2208 -20.9884 0.95
      vertex 7.22733 -20.9577 -5.72205e-07
      vertex 7.22733 -20.9577 0.95
    endloop
  endfacet
  facet normal 0.978152 -0.207891 0
    outer loop
      vertex 7.22733 -20.9577 -5.72205e-07
      vertex 7.2208 -20.9884 0.95
      vertex 7.2208 -20.9884 -5.72205e-07
    endloop
  endfacet
  facet normal 0.615648 -0.788021 0
    outer loop
      vertex 7.04867 -21.2436 -5.72205e-07
      vertex 7.07342 -21.2242 0.95
      vertex 7.04867 -21.2436 0.95
    endloop
  endfacet
  facet normal 0.615648 -0.788021 0
    outer loop
      vertex 7.07342 -21.2242 0.95
      vertex 7.04867 -21.2436 -5.72205e-07
      vertex 7.07342 -21.2242 -5.72205e-07
    endloop
  endfacet
  facet normal 0.559204 -0.82903 0
    outer loop
      vertex 7.02263 -21.2611 -5.72205e-07
      vertex 7.04867 -21.2436 0.95
      vertex 7.02263 -21.2611 0.95
    endloop
  endfacet
  facet normal 0.559204 -0.82903 0
    outer loop
      vertex 7.04867 -21.2436 0.95
      vertex 7.02263 -21.2611 -5.72205e-07
      vertex 7.04867 -21.2436 -5.72205e-07
    endloop
  endfacet
  facet normal 0.913546 0.406736 0
    outer loop
      vertex 7.2014 -20.711 0.95
      vertex 7.18863 -20.6823 -5.72205e-07
      vertex 7.18863 -20.6823 0.95
    endloop
  endfacet
  facet normal 0.913546 0.406736 0
    outer loop
      vertex 7.18863 -20.6823 -5.72205e-07
      vertex 7.2014 -20.711 0.95
      vertex 7.2014 -20.711 -5.72205e-07
    endloop
  endfacet
  facet normal 0.939684 0.342043 0
    outer loop
      vertex 7.21214 -20.7405 0.95
      vertex 7.2014 -20.711 -5.72205e-07
      vertex 7.2014 -20.711 0.95
    endloop
  endfacet
  facet normal 0.939691 0.342023 -6.86692e-07
    outer loop
      vertex 7.2014 -20.711 -5.72205e-07
      vertex 7.21214 -20.7405 0.95
      vertex 7.21214 -20.7405 -5.72205e-07
    endloop
  endfacet
  facet normal 0.84806 0.529901 -1.0639e-06
    outer loop
      vertex 7.17388 -20.6545 0.95
      vertex 7.15724 -20.6279 -5.72205e-07
      vertex 7.15724 -20.6279 0.95
    endloop
  endfacet
  facet normal 0.848043 0.529928 0
    outer loop
      vertex 7.15724 -20.6279 -5.72205e-07
      vertex 7.17388 -20.6545 0.95
      vertex 7.17388 -20.6545 -5.72205e-07
    endloop
  endfacet
  facet normal 0.882949 -0.469469 0
    outer loop
      vertex 7.17388 -21.1045 0.95
      vertex 7.18863 -21.0768 -5.72205e-07
      vertex 7.18863 -21.0768 0.95
    endloop
  endfacet
  facet normal 0.882949 -0.469469 0
    outer loop
      vertex 7.18863 -21.0768 -5.72205e-07
      vertex 7.17388 -21.1045 0.95
      vertex 7.17388 -21.1045 -5.72205e-07
    endloop
  endfacet
endsolid OpenSCAD_Model
